<?xml version="1.0" encoding="UTF-8"?>
<svg width="375px" height="316px" viewBox="0 0 375 316" version="1.1" xmlns="http://www.w3.org/2000/svg" xmlns:xlink="http://www.w3.org/1999/xlink">
    <!-- Generator: Sketch 63.1 (92452) - https://sketch.com -->
    <title>大数据精准营销</title>
    <desc>Created with Sketch.</desc>
    <defs>
        <linearGradient x1="50%" y1="0%" x2="50%" y2="100%" id="linearGradient-1">
            <stop stop-color="#59D0FC" stop-opacity="0" offset="0%"></stop>
            <stop stop-color="#4B79FF" offset="100%"></stop>
        </linearGradient>
        <linearGradient x1="50%" y1="0%" x2="50%" y2="100%" id="linearGradient-2">
            <stop stop-color="#59D0FC" offset="0%"></stop>
            <stop stop-color="#4B79FF" offset="100%"></stop>
        </linearGradient>
        <linearGradient x1="77.4638142%" y1="33.6606821%" x2="23.9306414%" y2="75.5469831%" id="linearGradient-3">
            <stop stop-color="#59D0FC" stop-opacity="0" offset="0%"></stop>
            <stop stop-color="#4B79FF" offset="100%"></stop>
        </linearGradient>
        <linearGradient x1="50%" y1="0%" x2="50%" y2="100%" id="linearGradient-4">
            <stop stop-color="#59D0FC" offset="0%"></stop>
            <stop stop-color="#5099FE" offset="62.984291%"></stop>
            <stop stop-color="#4B79FF" offset="100%"></stop>
        </linearGradient>
        <linearGradient x1="50%" y1="0%" x2="50%" y2="100%" id="linearGradient-5">
            <stop stop-color="#59D0FC" offset="0%"></stop>
            <stop stop-color="#4B79FF" offset="100%"></stop>
        </linearGradient>
        <linearGradient x1="6.53133808%" y1="74.240481%" x2="93.4686619%" y2="25.759519%" id="linearGradient-6">
            <stop stop-color="#59D0FC" offset="0%"></stop>
            <stop stop-color="#4B79FF" offset="100%"></stop>
        </linearGradient>
        <linearGradient x1="50%" y1="0%" x2="50%" y2="100%" id="linearGradient-7">
            <stop stop-color="#59D0FC" offset="0%"></stop>
            <stop stop-color="#4B79FF" offset="100%"></stop>
        </linearGradient>
        <linearGradient x1="50%" y1="0%" x2="50%" y2="100%" id="linearGradient-8">
            <stop stop-color="#59D0FC" offset="0%"></stop>
            <stop stop-color="#4B79FF" offset="100%"></stop>
        </linearGradient>
        <linearGradient x1="50%" y1="0%" x2="50%" y2="100%" id="linearGradient-9">
            <stop stop-color="#59D0FC" offset="0%"></stop>
            <stop stop-color="#4B79FF" offset="100%"></stop>
        </linearGradient>
        <linearGradient x1="50%" y1="0%" x2="50%" y2="100%" id="linearGradient-10">
            <stop stop-color="#59D0FC" offset="0%"></stop>
            <stop stop-color="#4B79FF" offset="100%"></stop>
        </linearGradient>
        <linearGradient x1="34.160592%" y1="60.445104%" x2="65.839408%" y2="39.554896%" id="linearGradient-11">
            <stop stop-color="#59D0FC" offset="0%"></stop>
            <stop stop-color="#4B79FF" offset="100%"></stop>
        </linearGradient>
        <linearGradient x1="50%" y1="0%" x2="50%" y2="100%" id="linearGradient-12">
            <stop stop-color="#59D0FC" offset="0%"></stop>
            <stop stop-color="#4B79FF" offset="100%"></stop>
        </linearGradient>
        <linearGradient x1="50%" y1="0%" x2="50%" y2="100%" id="linearGradient-13">
            <stop stop-color="#59D0FC" offset="0%"></stop>
            <stop stop-color="#4B79FF" offset="100%"></stop>
        </linearGradient>
        <linearGradient x1="50%" y1="0%" x2="50%" y2="100%" id="linearGradient-14">
            <stop stop-color="#59D0FC" offset="0%"></stop>
            <stop stop-color="#4B79FF" offset="100%"></stop>
        </linearGradient>
        <linearGradient x1="50%" y1="0%" x2="50%" y2="100%" id="linearGradient-15">
            <stop stop-color="#59D0FC" offset="0%"></stop>
            <stop stop-color="#4B79FF" offset="100%"></stop>
        </linearGradient>
        <linearGradient x1="50%" y1="0%" x2="50%" y2="100%" id="linearGradient-16">
            <stop stop-color="#59D0FC" offset="0%"></stop>
            <stop stop-color="#4B79FF" offset="100%"></stop>
        </linearGradient>
        <linearGradient x1="50%" y1="0%" x2="50%" y2="100%" id="linearGradient-17">
            <stop stop-color="#59D0FC" offset="0%"></stop>
            <stop stop-color="#4B79FF" offset="100%"></stop>
        </linearGradient>
        <linearGradient x1="50%" y1="0%" x2="50%" y2="100%" id="linearGradient-18">
            <stop stop-color="#59D0FC" offset="0%"></stop>
            <stop stop-color="#4B79FF" offset="100%"></stop>
        </linearGradient>
        <linearGradient x1="50%" y1="0%" x2="50%" y2="100%" id="linearGradient-19">
            <stop stop-color="#59D0FC" offset="0%"></stop>
            <stop stop-color="#4B79FF" offset="100%"></stop>
        </linearGradient>
        <linearGradient x1="50%" y1="0%" x2="50%" y2="100%" id="linearGradient-20">
            <stop stop-color="#59D0FC" offset="0%"></stop>
            <stop stop-color="#4B79FF" offset="100%"></stop>
        </linearGradient>
    </defs>
    <g id="中昱购买官网" stroke="none" stroke-width="1" fill="none" fill-rule="evenodd">
        <g id="画板" transform="translate(-2368.000000, -1905.000000)">
            <g id="大数据精准营销" transform="translate(2368.000000, 1905.000000)">
                <path d="M160,159.319584 L160,110.235772 C179.763871,108.743315 196.87021,111.434543 211.319016,118.309456 C225.767823,125.184369 240.054214,135.732305 254.17819,149.953264 L183.610241,170.953264 L160,159.319584 Z" id="路径-62" fill-opacity="0.44" fill="url(#linearGradient-1)"></path>
                <path d="M158.61251,82.2749879 C117.107771,80.6968015 87.092119,84.9248573 68.5655537,94.9591555 C40.7757057,110.010603 5.99085894,132.588785 14.2319305,184.217738 C22.473002,235.84669 98.6553767,273.901216 147.339193,280.343454 C196.02301,286.785692 257.62067,283.182166 293.639452,247.869233 C317.651974,224.327278 321.419186,193.354358 304.941089,154.950473" id="路径-29" stroke="url(#linearGradient-2)" stroke-width="2" stroke-dasharray="5"></path>
                <path d="M198.023676,1.47792889e-12 C111.718261,63.3061036 68.5655537,94.9591555 68.5655537,94.9591555 C40.7757057,110.010603 5.99085894,132.588785 14.2319305,184.217738 C22.473002,235.84669 98.6553767,273.901216 147.339193,280.343454 C196.02301,286.785692 257.62067,283.182166 293.639452,247.869233 C293.639452,248.591921 321.517821,212.767131 377.274557,140.394865 L198.023676,1.47792889e-12 Z" id="路径-29备份" fill="url(#linearGradient-3)" opacity="0.254394531"></path>
                <g id="人物" transform="translate(70.000000, 161.564290)" fill="url(#linearGradient-4)" fill-rule="nonzero">
                    <path d="M12.8045149,12.0848977 C12.8045149,11.9528224 12.739352,11.8207464 12.739352,11.6886715 C12.674189,11.4905584 12.6090262,11.226407 12.2832111,10.8301808 C11.9573971,10.4339545 11.5012563,10.2358414 10.8496267,10.0377283 C10.7193009,9.97169054 10.5238127,9.90565294 10.3934858,9.83961518 C10.3283229,9.77357742 10.1979971,9.77357742 10.0676718,9.70753982 C9.67669438,9.57546446 9.22055353,9.3773518 9.02506481,9.24527535 C8.76441267,9.04716223 8.63408737,8.71697421 8.76441267,8.18867153 C9.41604225,7.59433216 9.80701968,7.06603103 10.0676703,6.40565344 C10.4586477,6.1415021 10.7192999,5.67923918 10.8496252,5.15093649 C10.9147881,4.55659713 10.7844622,4.09433267 10.3934843,3.69810643 C10.0676703,1.32074898 8.69925384,0 6.41854194,0 C4.07267732,0 2.76942428,1.25471695 2.50876757,3.69810643 C2.11779013,4.16037089 1.92230141,4.68867203 1.98746483,5.28301139 C2.05262778,5.81131253 2.31327885,6.273577 2.7694197,6.47169012 C3.16039714,7.3962175 3.48621116,7.72640706 3.8771886,8.12263795 L4.07267732,8.32075107 C4.20300308,8.91509043 4.20300308,8.98112865 3.8771886,9.31131667 C3.68169988,9.50942979 3.22555903,9.64150469 2.83458159,9.77358114 L2.44360415,9.9056565 C1.46616056,10.2358445 0.293228248,10.6320708 0.162907526,11.7547174 C0.162907526,11.8867928 0.0977445693,11.9528306 0.0977445693,12.0849055 C0.0325816122,12.3490568 -0.162907565,13.0754711 0.293233288,13.3396224 C0.879699444,13.7358487 1.66165432,13.9339618 6.48370429,14 C11.3057543,14 12.4135338,13.7358487 12.8045113,13.2735857 C13,13.0754726 13,12.8773595 13,12.7452846 L13,12.6792468 C12.934837,12.5471715 12.8696742,12.4811337 12.8696742,12.3490588 C12.8696779,12.2830113 12.8696779,12.2169737 12.8045149,12.0848977 Z" id="路径"></path>
                </g>
                <g id="人物备份" opacity="0.340564546" transform="translate(167.000000, 254.564290)" fill="url(#linearGradient-4)" fill-rule="nonzero">
                    <path d="M12.8045149,12.0848977 C12.8045149,11.9528224 12.739352,11.8207464 12.739352,11.6886715 C12.674189,11.4905584 12.6090262,11.226407 12.2832111,10.8301808 C11.9573971,10.4339545 11.5012563,10.2358414 10.8496267,10.0377283 C10.7193009,9.97169054 10.5238127,9.90565294 10.3934858,9.83961518 C10.3283229,9.77357742 10.1979971,9.77357742 10.0676718,9.70753982 C9.67669438,9.57546446 9.22055353,9.3773518 9.02506481,9.24527535 C8.76441267,9.04716223 8.63408737,8.71697421 8.76441267,8.18867153 C9.41604225,7.59433216 9.80701968,7.06603103 10.0676703,6.40565344 C10.4586477,6.1415021 10.7192999,5.67923918 10.8496252,5.15093649 C10.9147881,4.55659713 10.7844622,4.09433267 10.3934843,3.69810643 C10.0676703,1.32074898 8.69925384,0 6.41854194,0 C4.07267732,0 2.76942428,1.25471695 2.50876757,3.69810643 C2.11779013,4.16037089 1.92230141,4.68867203 1.98746483,5.28301139 C2.05262778,5.81131253 2.31327885,6.273577 2.7694197,6.47169012 C3.16039714,7.3962175 3.48621116,7.72640706 3.8771886,8.12263795 L4.07267732,8.32075107 C4.20300308,8.91509043 4.20300308,8.98112865 3.8771886,9.31131667 C3.68169988,9.50942979 3.22555903,9.64150469 2.83458159,9.77358114 L2.44360415,9.9056565 C1.46616056,10.2358445 0.293228248,10.6320708 0.162907526,11.7547174 C0.162907526,11.8867928 0.0977445693,11.9528306 0.0977445693,12.0849055 C0.0325816122,12.3490568 -0.162907565,13.0754711 0.293233288,13.3396224 C0.879699444,13.7358487 1.66165432,13.9339618 6.48370429,14 C11.3057543,14 12.4135338,13.7358487 12.8045113,13.2735857 C13,13.0754726 13,12.8773595 13,12.7452846 L13,12.6792468 C12.934837,12.5471715 12.8696742,12.4811337 12.8696742,12.3490588 C12.8696779,12.2830113 12.8696779,12.2169737 12.8045149,12.0848977 Z" id="路径"></path>
                </g>
                <polygon id="路径-30" fill="url(#linearGradient-5)" points="156 77.9532645 156 85.9532645 162 82.131131"></polygon>
                <polygon id="路径-30备份" fill="url(#linearGradient-6)" points="301 159.953264 308 155.76871 301.666955 151.953264"></polygon>
                <path d="M175.386051,110.059497 C114.462017,103.169611 76.6959739,114.712823 62.0879216,144.689133 C31.5100177,198.433772 107.065645,244.69594 151.683147,248.356642 C196.300648,252.017344 253.08706,238.887152 264.445163,207.450067 C275.803265,176.012983 260.609282,145.476632 218.315428,122.953264 C212.634428,119.171238 198.324635,114.873316 175.386051,110.059497 Z" id="路径-59" stroke="url(#linearGradient-7)"></path>
                <path d="M168.779476,138.193103 C138.50551,133.914582 115.987729,140.709522 101.226132,158.577925 C82.9942359,190.21484 128.043836,217.44718 154.646759,219.602061 C181.249682,221.756943 215.108247,214.027822 221.880449,195.522304 C228.652651,177.016787 219.156271,157.507603 193.967874,146.47357 C190.58061,144.247271 182.184478,141.487115 168.779476,138.193103 Z" id="路径-59备份" fill="url(#linearGradient-8)" opacity="0.145740327"></path>
                <path d="M168.997731,150.789782 C147.066984,147.903069 130.75489,152.487607 120.06145,164.543397 C106.854092,185.888785 139.488448,204.262412 158.759857,205.716308 C178.031266,207.170204 202.55873,201.955376 207.464577,189.469725 C212.370424,176.984075 205.491157,163.821252 187.244444,156.376603 C184.790678,154.874522 178.708441,153.012248 168.997731,150.789782 Z" id="路径-59备份-2" fill="url(#linearGradient-9)" opacity="0.145740327"></path>
                <path d="M173,110.201283 C173,110.201283 172.774776,108.03881 172.324329,103.713863 C200.363818,108.021171 224.589042,118.004257 245,133.663121 C245,133.663121 242.954926,134.759836 238.864777,136.953264 C220.863402,124.116695 198.908476,115.199368 173,110.201283 Z" id="路径-61" fill="url(#linearGradient-10)"></path>
                <path d="M79.512925,215.512115 C78.6837232,216.220235 76.8460816,217.648669 74,219.79742 C93.7189344,237.712003 116.209116,248.730797 141.470546,252.853802 C141.470546,252.853802 141.470546,250.750105 141.470546,246.542709 C118.980364,241.820624 98.3278235,231.477092 79.512925,215.512115 Z" id="路径-61备份" fill="url(#linearGradient-11)"></path>
                <line x1="186" y1="170.953264" x2="253" y2="149.953264" id="路径-63" stroke="url(#linearGradient-12)" stroke-width="2" stroke-dasharray="5"></line>
                <path d="M167.824829,158.416337 C159.590314,157.682902 149.588936,156.019334 140.697108,166.029945 C133.375638,177.846142 151.466422,188.017257 162.149486,188.822092 C172.832549,189.626927 186.429296,186.740148 189.148842,179.828448 C194.010725,165.035949 176.059344,159.149772 167.824829,158.416337 Z" id="路径-59备份-3" fill="url(#linearGradient-13)"></path>
                <g id="购物车" transform="translate(192.000000, 293.564290)" fill="url(#linearGradient-14)" fill-rule="nonzero">
                    <path d="M23.1855523,3.59326356 C23.6616341,3.59326356 24.0229107,3.65476595 24.2865867,3.77647291 C24.5477804,3.89880476 24.7357553,4.045627 24.848029,4.22883636 C24.9603764,4.41204572 25.0104179,4.59523105 24.9982025,4.80355569 C24.985987,5.01123141 24.9603764,5.18249599 24.9115393,5.32871739 L24.5856064,6.23344429 L24.0485458,7.73670796 L23.4479995,9.36232752 C23.2612535,9.90003485 23.1111046,10.3279319 23.0109972,10.6334972 C22.7851963,11.2810147 22.5105337,11.7334022 22.173688,11.9900107 C21.8355888,12.2466432 21.4229928,12.368951 20.9359737,12.368951 L7.62517386,12.368951 L8.01208556,14.5687371 L20.7736094,14.5687371 C21.5865369,14.5687371 21.9991329,14.8987687 21.9991329,15.5713295 C21.9991329,15.9007602 21.9112163,16.1824359 21.7477214,16.414602 C21.5987769,16.6467201 21.2740974,16.7691 20.7980648,16.7691 L7.52506642,16.7691 C7.18694265,16.7691 6.90011381,16.6956528 6.67431291,16.5488546 C6.44974092,16.4020324 6.26171688,16.2063014 6.11161716,15.9741353 C5.94925286,15.7419692 5.83697916,15.4853607 5.73689629,15.2042859 C5.65023318,14.923211 5.57455658,14.6665785 5.52451515,14.4218908 L5.38655711,13.7135198 L5.09970369,12.3074967 L4.73717367,10.4252206 L4.33681763,8.33529281 L3.2370613,2.83533487 L1.33651916,2.83533487 C1.08751633,2.83533487 0.875159765,2.77448139 0.711566556,2.65212551 C0.538240338,2.52979367 0.399077965,2.38357227 0.28680426,2.21228366 C0.186672239,2.04101908 0.100033708,1.85778568 0.0622322725,1.66200667 C0.0256351739,1.46687656 0,1.28306636 0,1.12432337 C0,0.79426773 0.112322861,0.525738519 0.338123765,0.317461947 C0.574886593,0.10978622 0.875184344,0 1.26212063,0 L3.82418789,0 C4.16228708,0 4.43692508,0.0489087034 4.63706623,0.146798211 C4.83725653,0.244711753 4.99959625,0.366394685 5.12536345,0.51321693 C5.23766173,0.660015141 5.32430026,0.818782166 5.37436627,0.977501122 L5.49887997,1.39347746 C5.5379349,1.52773004 5.56234116,1.7109394 5.59901199,1.9430815 L5.69914401,2.66459903 L5.85049723,3.59319145 L23.1856998,3.59319145 L23.1855523,3.59326356 Z M18.923207,17.4775432 C19.2478864,17.4775432 19.560375,17.5389975 19.8484328,17.6488318 C20.1487059,17.758642 20.3977087,17.9179378 20.6113434,18.1256376 C20.8237,18.3333133 20.9982551,18.5654794 21.1227934,18.8465543 C21.2485114,19.1276531 21.3107437,19.4212736 21.3107437,19.7268148 C21.3107437,20.032356 21.2485114,20.3253996 21.1227934,20.6065225 C20.9982551,20.8875733 20.8237,21.1197395 20.6113434,21.327992 C20.3977333,21.5356918 20.1487059,21.6944348 19.8484328,21.8167906 C19.5603996,21.9391225 19.2478864,22 18.923207,22 C18.6107184,22 18.2982544,21.9391465 18.0113764,21.8167906 C17.7245475,21.6944588 17.4730869,21.5357158 17.2729212,21.327992 C17.0605154,21.1196914 16.8859357,20.8875733 16.7614712,20.6065225 C16.6357286,20.3254237 16.5734717,20.03238 16.5734717,19.7268148 C16.5734717,19.4212496 16.6357286,19.1276531 16.7614712,18.8465543 C16.8859603,18.5655035 17.0604908,18.3333373 17.2729212,18.1256376 C17.4730869,17.9179378 17.7245475,17.758618 18.0113764,17.6488318 C18.2982298,17.5389735 18.6107184,17.4775432 18.923207,17.4775432 Z M8.38680643,17.4286345 C8.71146128,17.4286345 9.01175903,17.4900888 9.29981678,17.5998991 C9.5866702,17.7102861 9.83687736,17.8690531 10.0614739,18.0767048 C10.2738551,18.2843806 10.4496145,18.5165467 10.5619374,18.7976456 C10.6864265,19.0787204 10.7499123,19.3723649 10.7499123,19.6779061 C10.7499123,19.9834473 10.6864511,20.2764669 10.5619374,20.5575898 C10.4496145,20.8386887 10.2738305,21.0714076 10.0614739,21.2790833 C9.83690194,21.4867831 9.5866702,21.645502 9.29981678,21.7678579 C9.01178361,21.8901897 8.71146128,21.9510673 8.38680643,21.9510673 C8.049887,21.9510673 7.73742299,21.8902138 7.46155607,21.7678579 C7.18691807,21.6455261 6.93668633,21.4868071 6.71208977,21.2790833 C6.49970862,21.0714076 6.32394915,20.8386887 6.21162629,20.5575898 C6.08713716,20.2764909 6.02367598,19.9834713 6.02367598,19.6779061 C6.02367598,19.3723409 6.08711259,19.0787204 6.21162629,18.7976456 C6.32394915,18.5165707 6.4997332,18.2844046 6.71208977,18.0767048 C6.93666176,17.8690531 7.1868935,17.7102861 7.46155607,17.5998991 C7.73739841,17.4900648 8.049887,17.4286345 8.38680643,17.4286345 L8.38680643,17.4286345 Z" id="形状"></path>
                </g>
                <g id="位置" transform="translate(105.000000, 102.953264)" fill-rule="nonzero">
                    <path d="M11.9813049,1.5546231 C10.7295952,0.578519775 9.17692802,0 7.49886186,0 C7.0451456,0 6.60510923,0.0428533167 6.17419279,0.12379847 C5.26676027,0.290450257 4.40948734,0.635657531 3.64797362,1.11418623 C1.46147165,2.48311163 -3.69825981e-06,4.98526917 -3.69825981e-06,7.83263399 C-0.00455625812,11.0680594 4.20200905,16.762789 6.31555162,19.4196947 C6.93114654,20.1934351 8.0642972,20.1934351 8.67989212,19.4196947 C10.7934347,16.762789 14.9999963,11.0704401 14.9999963,7.83263399 C14.9999963,6.01612951 14.4049249,4.34008868 13.4062931,3.00925513 C12.9936165,2.45930423 12.5171005,1.97125257 11.9813049,1.5546231 Z" id="路径" fill="url(#linearGradient-15)"></path>
                    <path d="M7.5,11 C8.87750455,11 10,9.88433515 10,8.5 C10,7.12249545 8.88433515,6 7.5,6 C6.12249545,6 5,7.11566485 5,8.5 C5,9.88433515 6.12249545,11 7.5,11 Z" id="路径" fill="#134075"></path>
                </g>
                <g id="云" transform="translate(0.000000, 167.953264)" fill="url(#linearGradient-16)" fill-rule="nonzero">
                    <path d="M18.9940111,4.70746562 C18.5950195,4.70746562 18.3066727,4.70746562 17.9646799,4.76492394 L17.3343402,4.82238225 L17.0493462,4.24441921 C16.020015,2.05086355 13.8440021,0.611025785 11.4433468,0.611025785 C8.23800269,0.611025785 5.54900059,3.09187301 5.3210054,6.32305823 L5.26400661,7.18831285 L4.34867297,7.13085454 L4.23467538,7.13085454 C1.88766606,7.13085454 0,9.03373872 0,11.3996693 C0,13.7081416 1.88766606,15.6110258 4.23467538,15.6110258 L18.9403652,15.6110258 C21.4583709,14.9181461 23.4030357,13.3025535 23.862379,11.2847527 C24.147373,10.1322065 23.9193778,9.15203525 23.8053802,8.80390546 C23.2286865,6.55627139 21.3410204,4.94067878 18.9940111,4.70746562 Z" id="路径"></path>
                </g>
                <g id="店铺" transform="translate(257.000000, 234.564290)" fill="url(#linearGradient-17)" fill-rule="nonzero">
                    <path d="M21.2376189,2.62999723 L1.76237462,2.62999723 L0,7.76714289 L0,7.9214286 L0,7.92142583 C0.07280284,9.44678074 1.33694873,10.6471401 2.87356166,10.6499973 L2.87356179,10.6499973 C4.4635666,10.6436995 5.74871817,9.36013789 5.74712345,7.77999725 C5.74712345,9.3628544 7.03656057,10.6514258 8.62068511,10.6514258 L8.62068495,10.6514258 C10.2131178,10.6451477 11.5018159,9.3625486 11.5057466,7.77999725 C11.5057466,9.3628544 12.7966212,10.6514258 14.3807458,10.6514258 C15.9763703,10.6514258 17.2528699,9.3628544 17.2528699,7.77999725 C17.2528699,9.3628544 18.542307,10.6514258 20.1278691,10.6514258 L20.1278691,10.6514258 C21.7178762,10.6443433 23.0023966,9.36014235 23,7.77999725 L21.2376188,2.62999723 L21.2376189,2.62999723 Z M3.71593654,1.73428572 L19.2969945,1.73428572 C19.8834943,1.73428572 20.3564317,1.35142858 20.3564317,0.867142861 C20.3564317,0.381428573 19.8834943,0 19.2969945,0 L3.71593654,0 C3.12943672,0 2.65649935,0.382857144 2.65649935,0.867142861 C2.65649935,1.33857143 3.12943672,1.73428572 3.71593654,1.73428572 Z M17.2528701,10.7914285 L17.2528699,10.7914285 C16.4754567,11.5196118 15.4476108,11.925335 14.3793083,11.9257145 L14.3793085,11.9257145 C13.3094292,11.9336077 12.278596,11.5267056 11.5057468,10.7914285 L11.5057469,10.7914285 C10.7286953,11.5192724 9.7014289,11.9249711 8.63362277,11.9257144 L8.63362293,11.9257144 C7.56324726,11.9339802 6.53183009,11.5270514 5.75862377,10.7914285 L5.75862389,10.7914285 C4.98157226,11.5192723 3.95430587,11.9249709 2.88649973,11.9257143 L2.6694373,11.9257143 L2.6694373,18.2657143 C2.6694373,19.3228571 3.62681202,20 4.44474928,20 L18.6069951,20 C19.6793698,20 20.3823071,19.2085714 20.3823071,18.2657143 L20.3823071,11.9142857 L20.1652447,11.9142857 L20.1652449,11.9142857 C19.0849011,11.9296706 18.0407463,11.5276116 17.2528708,10.7928571 L17.2528701,10.7914285 Z" id="形状"></path>
                </g>
                <g id="心-爱心" transform="translate(24.000000, 257.564290)" fill="url(#linearGradient-18)" fill-rule="nonzero">
                    <path d="M19.2201311,1.94044958 L19.1562534,1.87446918 C16.7752305,-0.547991437 12.978894,-0.63243374 10.4982284,1.67919983 C8.01758083,-0.63243374 4.22122629,-0.545356674 1.8402034,1.87446918 C-0.589356442,4.35237114 -0.617469071,8.39506265 1.78144531,10.9072351 L1.84018544,10.9679089 L9.09311791,18.3910015 C9.85444023,19.1932127 11.10115,19.2037703 11.877795,18.4174048 L11.9033389,18.3910015 L19.1562534,10.9732155 C21.588382,8.49798541 21.6190275,4.45264058 19.2201311,1.94046814 L19.2201311,1.94044958 Z M16.8467785,7.21548768 C16.6679355,7.21548768 16.5197559,7.06508246 16.5197559,6.8777174 C16.5197559,5.66121757 15.5642858,4.67427611 14.3865552,4.67427611 C14.2996845,4.67427611 14.2153826,4.63735232 14.1540737,4.57400668 C14.0927468,4.51067959 14.0569802,4.42358397 14.0569802,4.33387214 L14.0569802,4.33387128 C14.0564258,4.14790153 14.2019289,3.99667726 14.3819728,3.99610232 C14.3826505,3.99610232 14.3833282,3.99610232 14.3840058,3.99610232 C15.924506,3.99610232 17.1737845,5.28648851 17.1737845,6.87771846 C17.1737845,7.06243002 17.0281557,7.21548768 16.8467799,7.21548768 L16.8467785,7.21548768 Z" id="形状"></path>
                </g>
                <g id="人物" transform="translate(322.000000, 155.564290)" fill="url(#linearGradient-19)" fill-rule="nonzero">
                    <path d="M11.162964,9.14285714 L1.84492158,9.14285714 L1.84492165,9.14285714 C0.813772283,9.15863233 -0.0111680193,10.0662164 0.000114361217,11.1723489 L0.690805765,19.6285646 L0.711302306,19.8822511 L0.711302245,19.8822507 C0.810714079,20.4969044 1.30438932,20.9482702 1.88591204,20.956191 L2.34945019,20.956191 L2.34945024,20.9561911 C2.73074957,20.9874264 3.03904566,21.301878 3.08732585,21.7087946 L3.08732584,21.7087945 C3.09284775,21.7474303 3.0960078,21.7864121 3.09678579,21.8254904 L3.73533158,30.6875952 L3.74952149,30.8854709 L3.74952147,30.8854707 C3.83284542,31.5193406 4.33527945,31.9928998 4.93201424,32 L8.0853283,32 L8.08532825,32 C8.67060579,31.9917452 9.16587783,31.5339283 9.25993805,30.9142227 L9.27728127,30.6605362 L9.91582707,21.8136297 L9.91582706,21.8136296 C9.91371428,21.7849232 9.91371428,21.7560826 9.91582707,21.7273763 L9.91582707,21.7273763 C9.95844137,21.3138781 10.2686822,20.9910247 10.6552787,20.957861 L11.1125098,20.957861 L11.1125098,20.957861 C11.7105452,20.9496742 12.2131769,20.4737778 12.2950026,19.8382568 L12.2950026,19.8314919 L12.3060392,19.7012663 L12.9998856,11.1791039 L12.9998856,11.1791041 C13.0111681,10.0729716 12.1862277,9.16538832 11.1550814,9.14961231 L11.162964,9.14285714 Z M6.36963152,9.14077349 L6.3696317,9.1407735 C8.76216937,9.21625376 10.7597106,7.23168159 10.8312816,4.70809369 C10.9028426,2.18451909 9.02131957,0.0775744965 6.62876929,0.00208358823 C4.23713651,-0.073368078 2.24001461,1.90972554 2.16718241,4.43230246 L2.16718241,4.57108867 L2.16718229,4.57109796 C2.13373497,7.05569996 4.0140933,9.09958804 6.36963158,9.13902954 L6.36963152,9.14077349 Z" id="形状"></path>
                </g>
                <g id="信息-短信-私信-对话" transform="translate(51.000000, 68.564290)" fill="url(#linearGradient-20)" fill-rule="nonzero">
                    <path d="M17.5019275,5.92768597 C16.2282182,2.38352089 12.8501247,-0.0530983546 9.08437602,0.00228353429 C4.15567664,-0.108471602 0.113031448,3.82333967 0.00228386862,8.80732354 C-0.108473456,13.7913074 3.82341552,17.8892362 8.69673191,18 L13.9023278,18 C14.3453567,17.9446225 14.6776289,17.6123562 14.7330082,17.169336 L14.7330082,15.9510301 C17.6680857,13.5144108 18.7202704,9.52722742 17.5019367,5.92769884 L17.5019275,5.92768597 Z M4.72222099,9.72222284 C4.55555451,9.88888932 4.27777716,10 4,10 C3.44444567,10 3,9.55555617 3,9 C3,8.44444567 3.44444383,8 4,8 C4.55555433,8 5,8.44444383 5,9 C5,9.27777716 4.88888895,9.5 4.72222284,9.72222099 L4.72222099,9.72222284 Z M9.72222099,9.72222284 C9.55555451,9.88888932 9.27777716,10 9,10 C8.44444567,10 8,9.55555617 8,9 C8,8.44444567 8.44444383,8 9,8 C9.55555433,8 10,8.44444383 10,9 C10,9.27777716 9.88888895,9.5 9.72222284,9.72222099 L9.72222099,9.72222284 Z M14.722221,9.72222284 C14.5555545,9.88888932 14.2777772,10 14,10 C13.4444457,10 13,9.55555617 13,9 C13,8.44444567 13.4444438,8 14,8 C14.5555543,8 15,8.44444383 15,9 C15,9.27777716 14.888889,9.5 14.7222228,9.72222099 L14.722221,9.72222284 Z" id="形状"></path>
                </g>
            </g>
        </g>
    </g>
</svg>