<?xml version="1.0" encoding="UTF-8"?>
<svg width="300px" height="312px" viewBox="0 0 300 312" version="1.1" xmlns="http://www.w3.org/2000/svg" xmlns:xlink="http://www.w3.org/1999/xlink">
    <!-- Generator: Sketch 63.1 (92452) - https://sketch.com -->
    <title>挂机短信</title>
    <desc>Created with Sketch.</desc>
    <defs>
        <linearGradient x1="6.7095489%" y1="7.66736466%" x2="54.6370996%" y2="86.6574741%" id="linearGradient-1">
            <stop stop-color="#59D0FC" offset="0%"></stop>
            <stop stop-color="#4C7CFF" offset="75.7376708%"></stop>
            <stop stop-color="#4B79FF" offset="100%"></stop>
        </linearGradient>
        <linearGradient x1="14.379319%" y1="0.769219302%" x2="50%" y2="99.2307807%" id="linearGradient-2">
            <stop stop-color="#59D0FC" offset="0%"></stop>
            <stop stop-color="#4B79FF" offset="100%"></stop>
        </linearGradient>
        <linearGradient x1="50%" y1="100%" x2="50%" y2="0%" id="linearGradient-3">
            <stop stop-color="#59D0FC" stop-opacity="0" offset="0%"></stop>
            <stop stop-color="#4C7CFF" offset="75.7376708%"></stop>
            <stop stop-color="#4B79FF" offset="100%"></stop>
        </linearGradient>
        <linearGradient x1="50%" y1="0%" x2="50%" y2="100%" id="linearGradient-4">
            <stop stop-color="#59D0FC" offset="0%"></stop>
            <stop stop-color="#4B79FF" offset="100%"></stop>
        </linearGradient>
        <linearGradient x1="14.379319%" y1="0.975586313%" x2="50%" y2="99.0244137%" id="linearGradient-5">
            <stop stop-color="#59D0FC" offset="0%"></stop>
            <stop stop-color="#4B79FF" offset="100%"></stop>
        </linearGradient>
        <linearGradient x1="9.54883947%" y1="77.4401549%" x2="85.2244601%" y2="0%" id="linearGradient-6">
            <stop stop-color="#B6E8FD" offset="0%"></stop>
            <stop stop-color="#7CD5FF" offset="25.306962%"></stop>
            <stop stop-color="#93AEFF" offset="100%"></stop>
        </linearGradient>
        <linearGradient x1="50%" y1="0%" x2="50%" y2="100%" id="linearGradient-7">
            <stop stop-color="#59D0FC" offset="0%"></stop>
            <stop stop-color="#4B79FF" offset="100%"></stop>
        </linearGradient>
        <linearGradient x1="50%" y1="0%" x2="50%" y2="100%" id="linearGradient-8">
            <stop stop-color="#4B79FF" offset="0%"></stop>
            <stop stop-color="#59D0FC" stop-opacity="0" offset="100%"></stop>
        </linearGradient>
    </defs>
    <g id="中昱购买官网" stroke="none" stroke-width="1" fill="none" fill-rule="evenodd">
        <g id="画板" transform="translate(-368.000000, -2580.000000)">
            <g id="挂机短信" transform="translate(369.000000, 2580.000000)">
                <polygon id="多边形复制-4" stroke="url(#linearGradient-2)" fill-opacity="0.6" fill="url(#linearGradient-1)" opacity="0.318963914" transform="translate(152.500000, 182.228758) rotate(-180.000000) translate(-152.500000, -182.228758) " points="152.5 53.7287579 264.65029 117.978758 264.65029 246.478758 152.5 310.728758 40.3497102 246.478758 40.3497102 117.978758"></polygon>
                <polygon id="多边形复制-5" fill-opacity="0.6" fill="url(#linearGradient-3)" opacity="0.318963914" transform="translate(152.500000, 155.364379) rotate(-180.000000) translate(-152.500000, -155.364379) " points="152.5 -3.0605119e-12 264.65029 64.25 264.65029 310.728758 40.3497102 310.728758 40.3497102 64.25"></polygon>
                <polygon id="多边形复制-3" stroke="url(#linearGradient-5)" fill="url(#linearGradient-4)" points="152 81.7287579 240.334591 132.228758 240.334591 233.228758 152 283.728758 63.6654088 233.228758 63.6654088 132.228758"></polygon>
                <path d="M122.40815,133.389277 L192.467479,173.488059 C194.000654,174.365579 194.956991,175.986999 194.983205,177.753345 L195.683155,224.915843 C195.694306,225.6675 195.535829,226.411999 195.21951,227.093949 C193.762695,230.23469 190.458387,232.837982 185.306585,234.903826 C170.842863,226.454077 147.415867,210.81703 115.025595,187.992685 C113.789763,187.121844 113.014321,185.73859 112.916223,184.229941 L109.924227,138.216159 L109.924227,138.216159 L117.219521,133.523587 C118.788564,132.514326 120.788993,132.462545 122.40815,133.389277 Z" id="矩形复制-33" fill="url(#linearGradient-6)"></path>
                <path d="M116.202305,137.330763 L186.202305,178.178629 C187.738016,179.074779 188.682281,180.719074 188.682281,182.497133 L188.682281,230.158385 C188.682281,232.919809 186.443705,235.158385 183.682281,235.158385 C182.796745,235.158385 181.927095,234.923204 181.162257,234.47689 L111.162257,193.629024 C109.626546,192.732874 108.682281,191.088578 108.682281,189.31052 L108.682281,141.649267 C108.682281,138.887843 110.920857,136.649267 113.682281,136.649267 C114.567817,136.649267 115.437467,136.884448 116.202305,137.330763 Z" id="矩形" fill="#B6E8FD"></path>
                <line x1="157.782281" y1="176.478917" x2="178.132281" y2="187.358372" id="直线-3" stroke="#8CD0ED" stroke-width="5" stroke-linecap="round" stroke-linejoin="round"></line>
                <line x1="144.230668" y1="185.431604" x2="177.133894" y2="203.376048" id="直线-3复制" stroke="#8CD0ED" stroke-width="5" stroke-linecap="round" stroke-linejoin="round"></line>
                <line x1="117.226141" y1="184.447944" x2="178.138422" y2="220.359709" id="直线-3复制-2" stroke="#8CD0ED" stroke-width="5" stroke-linecap="round" stroke-linejoin="round"></line>
                <g id="挂机" transform="translate(113.682281, 156.728758)" fill="#8CD0ED" fill-rule="nonzero">
                    <path d="M19.4767442,25 C17.5872093,25 15.4069767,24.2690058 13.0813953,22.8070175 C11.0465116,21.4912281 8.86627907,19.8830409 6.83139535,17.8362573 C4.94186047,15.7894737 3.19767442,13.5964912 2.03488372,11.5497076 C0.726744186,9.21052632 0,7.16374269 0,5.55555556 C0,4.8245614 0.145348837,4.23976608 0.581395349,3.50877193 C0.872093023,2.92397661 1.45348837,2.33918129 2.03488372,1.9005848 C2.90697674,1.16959064 4.21511628,0.14619883 5.37790698,0.14619883 C5.95930233,0.14619883 6.54069767,0.438596491 7.26744186,1.31578947 C7.84883721,1.9005848 8.43023256,2.77777778 8.86627907,3.3625731 L10.1744186,5.55555556 C10.755814,6.57894737 10.755814,7.01754386 10.755814,7.30994152 C10.755814,8.1871345 10.3197674,8.77192982 10.0290698,9.35672515 C9.73837209,9.50292398 9.59302326,9.79532164 9.59302326,10.0877193 C9.59302326,10.2339181 9.73837209,10.5263158 10.3197674,11.1111111 C10.755814,11.6959064 11.3372093,12.2807018 11.9186047,12.8654971 C13.2267442,14.1812865 14.244186,15.0584795 14.6802326,15.2046784 C14.9709302,15.2046784 15.2616279,15.0584795 15.6976744,14.7660819 C16.2790698,14.4736842 17.005814,14.0350877 17.7325581,14.0350877 C18.0232558,14.0350877 18.6046512,14.1812865 19.622093,14.7660819 C20.2034884,15.2046784 21.0755814,15.6432749 21.8023256,16.2280702 C22.5290698,16.8128655 23.255814,17.3976608 23.8372093,17.8362573 C24.5639535,18.5672515 25,19.005848 25,19.5906433 C25,20.3216374 24.8546512,21.0526316 24.4186047,21.7836257 C24.127907,22.3684211 23.6918605,22.9532164 23.1104651,23.5380117 C21.9476744,24.4152047 20.6395349,25 19.4767442,25 L19.4767442,25 Z M22.3837209,4.53216374 L24.2732558,2.63157895 C24.8546512,2.04678363 24.8546512,1.16959064 24.2732558,0.584795322 C23.6918605,0 22.8197674,0 22.2383721,0.584795322 L20.3488372,2.33918129 L18.4593023,0.438596491 C17.877907,-0.14619883 17.005814,-0.14619883 16.4244186,0.438596491 C15.8430233,1.02339181 15.8430233,1.9005848 16.4244186,2.48538012 L18.1686047,4.53216374 L16.2790698,6.43274854 C15.6976744,7.01754386 15.6976744,7.89473684 16.2790698,8.47953216 C16.5697674,8.77192982 17.005814,8.91812865 17.2965116,8.91812865 C17.5872093,8.91812865 18.0232558,8.77192982 18.3139535,8.47953216 L20.2034884,6.57894737 L22.0930233,8.47953216 C22.3837209,8.77192982 22.8197674,8.91812865 23.1104651,8.91812865 C23.4011628,8.91812865 23.8372093,8.77192982 24.127907,8.47953216 C24.7093023,7.89473684 24.7093023,7.01754386 24.127907,6.43274854 L22.3837209,4.53216374 Z" id="形状"></path>
                </g>
                <circle id="椭圆形复制-14" stroke="url(#linearGradient-7)" cx="293" cy="66.7287579" r="5"></circle>
                <circle id="椭圆形复制-15" stroke="url(#linearGradient-7)" cx="5" cy="218.728758" r="5"></circle>
                <line x1="292.5" y1="71.7287579" x2="292.5" y2="125.762086" id="直线复制-9" stroke="url(#linearGradient-8)" stroke-linecap="square"></line>
                <line x1="4.5" y1="223.728758" x2="4.5" y2="277.762086" id="直线复制-10" stroke="url(#linearGradient-8)" stroke-linecap="square"></line>
            </g>
        </g>
    </g>
</svg>