<?xml version="1.0" standalone="no"?><!DOCTYPE svg PUBLIC "-//W3C//DTD SVG 1.1//EN" "http://www.w3.org/Graphics/SVG/1.1/DTD/svg11.dtd"><svg class="icon" width="512px" height="210.05px" viewBox="0 0 2496 1024" version="1.1" xmlns="http://www.w3.org/2000/svg"><path d="M765.499455 695.54787l6.111964-63.871621s0-57.503659-67.263601-51.103696c-67.263601 6.399962-48.89571 63.871621-55.039673 89.407469 0 25.567848 0 204.414786-183.422911 210.782748-122.303274 0-165.11902-89.407469-165.11902-89.407469s48.959709 114.975317 134.559201 127.743242c79.487528 19.167886 189.534875-12.799924 189.534875-12.799924l79.487528-63.839621 61.151637-146.911128z" fill="#FF9B15" /><path d="M261.854445 178.974937S437.149404 16.223904 605.916402 63.679622c123.359268 33.919799 123.359268 122.079275 123.359268 122.079275s6.495961 13.53592 25.951846 13.53592c25.983846 0 64.959614 0 71.423576 40.703758 0 40.703758-84.383499 47.455718-123.327268 27.135839-38.975769-13.567919-58.431653-40.703758-58.431653-40.703758s-19.487884-6.78396-12.991923 13.567919c6.495961 20.351879 51.935692 33.919799 64.927615 40.703758 12.959923 6.75196 12.959923 13.53592-6.495962 13.53592-19.487884 0-84.415499 13.567919-116.863306 33.919799a229.02264 229.02264 0 0 0-77.887538 81.375516c-12.991923 33.919799-38.975769 101.727396-103.871383 88.159477 0 0-12.991923-6.78396 0-33.919799 12.959923-27.103839 12.959923-40.671759 6.463962-47.455718-6.463962-6.78396-19.455884 0-38.943769 6.78396-19.455884 6.78396-103.871383 61.023638-149.311113 169.534993-45.43973 108.479356-19.487884 393.309665 259.678458 413.661544 0 0-324.606073-74.559557-207.742767-447.581342 0 0-64.927614 298.398228 149.311114 366.205825 214.238728 67.839597 292.158265-149.183114 292.158265-203.454792 0 0 6.463962-47.455718 51.903692-40.671758 45.43973 0 71.423576 20.351879 71.423576 74.591557 0 54.239678-51.935692 196.670832-214.238728 244.15855-155.807075 47.455718-331.070034 40.639759-486.877109-155.999074-155.839075-196.670832-45.43973-454.365302-25.983846-481.469141 19.487884-27.135839 38.943769-74.623557-6.495962-81.375517-45.43973-6.78396-51.935692 33.919799-77.887537 13.53592-32.447807-6.78396 38.943769-155.967074 246.718535-115.263316z" fill="#0E69D6" /><path d="M557.596689 158.975056c0 24.703853 19.199886 44.735734 42.815746 44.735734 23.64786 0 42.783746-20.031881 42.783746-44.735734 0-24.671854-19.135886-44.703735-42.783746-44.703734s-42.815746 20.031881-42.815746 44.703734zM1480.951207 99.135411v34.111798s-201.790802 0-269.054403 34.111797c-67.263601 34.111797-91.743455 93.759443 42.783746 102.303393h189.566875l-30.559819 42.623747H1205.752841s-122.303274-8.511949-165.11902-34.111798c-42.783746-25.567848-55.039673-68.191595-6.079964-110.815342 48.89571-42.623747 226.238657-68.223595 281.27833-68.223595h165.05502z m36.671782 0v34.111798h42.815746v119.359291s12.223927 59.679646 48.89571 59.679646h134.527201V269.662399h-73.375565s-12.223927 0-12.223927-17.055899v-119.359291h79.487528V90.623462h-79.487528V22.431867h-61.119637l-36.703782 68.191595h-42.815746v8.511949z m256.830475 0V312.318146h91.711456V158.815057s24.447855-34.079798 55.039673-17.023899c24.447855 8.511949 24.447855 34.079798 24.447855 34.079798h85.599491s6.111964-76.735544-61.119637-85.247494c-61.151637 0-103.967383 34.111797-103.967382 34.111797V90.623462l-91.711456 8.511949z m287.358294 51.167697h97.855419v161.983038h-97.823419V150.303108z m409.725567-17.055899c-48.927709-68.191595-165.11902-25.599848-177.342947-17.055899v-25.567848h-97.823419v221.662684h97.823419V269.662399s67.263601 34.111797 128.415238 8.511949c55.039673-25.567848 103.935383-76.703545 48.927709-144.927139z m-91.743455 127.93524c-36.671782 6.399962-85.599492-12.767924-85.599492-12.767924V190.910866s0-6.399962 36.703782-12.767924c36.671782-6.399962 61.119637-6.399962 85.599492 19.199886 24.447855 25.535848 0 57.471659-36.703782 63.839621z" fill="#0E69D6" /><path d="M2061.843758 60.383641c0 31.743812 24.639854 57.471659 55.039673 57.471659s55.039673-25.727847 55.039673-57.471659S2147.251251 2.879983 2116.851431 2.879983s-55.039673 25.759847-55.039673 57.503658z" fill="#FF9913" /><path d="M1003.994039 427.261463H2495.98518v25.535849H1003.994039v-25.535849z m1088.409537 306.59018v-31.935811h-79.487528v-89.407469l-6.111963-6.399962 85.599491-12.799924v-38.303772l-281.27833 57.503658v31.935811l85.599492-12.799924v76.671544h-85.599492v31.935811h55.039674l-55.039674 242.718559h42.815746l42.783746-185.2469v185.278899h122.303274v-191.678861l42.815746 191.678861h42.783746l-55.039673-242.750558h42.815745v-6.399962z m-97.823419-121.34328l-18.335891 6.399962 18.335891-6.399962z m-348.54193 185.214901h-79.487528v-44.703735h79.487528v-31.93581h-79.487528v-31.935811h79.487528v-31.93581h-79.487528V618.876325h79.487528v-31.93581h-79.487528v-25.535848h-103.967383v31.93581h-79.487528l12.223927-25.567848h-73.375564l-48.92771 63.90362v197.982825H1646.070226v-31.93581z m-183.454911-70.239583H1370.87186v-38.335773h91.711456v38.335773z m-85.599492-108.607356h85.599492v38.335773H1370.87186l6.111964-38.335773z m-6.111964 134.143204h91.711456v38.335772H1370.87186v-38.335772z m886.650736 6.399962h-134.527201v25.535848h134.527201v70.271583h-134.527201v31.93581h134.527201v63.871621h-134.527201v31.935811H2495.98518v-31.935811h-134.527201v-63.871621H2495.98518v-31.93581h-134.527201V784.955339H2495.98518v-25.535848h-238.462584z m-1070.073646-191.646862h-61.183637l-61.119637 83.039507v25.567848h-61.151637v31.93581h61.119637v108.575356l-61.119637 19.199886v31.90381l61.119637-19.167886v95.807431c0 12.799924-18.335891 25.567848-18.335891 25.567848h-42.783746v25.535849h134.527201c48.89571 0 48.89571-31.93581 48.89571-31.935811v-153.279089l55.039673-19.199886v-38.303773l-55.039673 19.167886v-70.271583h55.039673v-31.93581h-55.039673v-102.207393z m427.997458 319.390103s18.367891-19.167886 18.367891-31.93581c0-12.799924-18.367891-12.799924-18.367891-12.799924h-336.318003v31.96781h42.815746l-42.783746 114.975318h103.935383l36.703782-114.975318h103.935383c12.223927 0 6.111964 12.767924 6.111964 12.767924l-12.223928 31.935811s24.447855 0 36.703782 19.167886c12.223927 12.799924 0 44.703735 0 44.703735h97.823419s6.111964-25.535848 6.111964-51.103697c-12.223927-25.535848-42.815746-44.703735-42.815746-44.703735z m874.426808-242.718558c0-19.167886-6.111964-38.335772-24.447854-57.503659-18.367891-25.535848-48.959709-25.535848-97.855419-25.535848-55.039673 0-134.527201 19.167886-134.527202 19.167886v-19.199886h-103.935383v172.478976H2495.98518v-31.935811s-6.111964-38.303773-6.111964-57.471658z m-226.238656-31.935811c18.335891-6.399962 85.599492-12.799924 85.599491-12.799924s48.927709-12.767924 48.92771 44.735735c0 57.471659 0 57.471659-18.367891 57.471658-18.335891 0-152.863092-6.399962-152.863092-6.399962V631.676249s18.335891-12.799924 36.703782-19.199886z" fill="#0E69D6" /><path d="M569.820617 184.542904c0-19.167886 12.255927-31.93581 24.479854-31.93581h-6.111963c-18.367891 0-30.591818 12.767924-30.591819 31.93581s12.223927 38.335772 30.591819 38.335773h6.079964c-12.191928-6.399962-24.447855-25.567848-24.447855-38.335773z" fill="#FFFFFF" /></svg>