<?xml version="1.0" standalone="no"?><!DOCTYPE svg PUBLIC "-//W3C//DTD SVG 1.1//EN" "http://www.w3.org/Graphics/SVG/1.1/DTD/svg11.dtd"><svg t="1677574705504" class="icon" viewBox="0 0 1024 1024" version="1.1" xmlns="http://www.w3.org/2000/svg" p-id="6572" xmlns:xlink="http://www.w3.org/1999/xlink" width="512" height="512"><path d="M647.9 460.1v8.8c-5 0-9.7 0.2-14.4-0.1-3.4-0.2-5.5 0.8-6.7 4.3-1.2 3.7-3.1 7.3-5.1 11.8 3 0 5.5-0.1 8 0 8.5 0.3 13.3 4.5 13.4 12.8 0.2 22.1 0.2 44.3 0 66.4-0.1 6.6-3.4 10.1-9.7 10.8-5.1 0.6-10.5 0.9-15.5 0-2.3-0.4-3.9-4.2-5.8-6.5 0.4-0.7 0.8-1.4 1.1-2 3.9 0 7.7-0.1 11.6 0 4.7 0.2 7-1.4 6.9-6.5-0.2-19.9-0.1-39.9 0-59.8 0-4.2-1.8-6.6-5.9-6.7-7.3-0.2-14.7-0.1-22.5-0.1v13.1h22.2v7.8h-22.2v12.2c2.7 0 5.2-0.1 7.7 0 6.3 0.4 9.4 3.6 9.6 9.9 0.2 6.4 0.1 12.8 0 19.2-0.1 5.8-2.8 9-8.7 9.2-9.8 0.3-19.6 0.3-29.3 0-5.3-0.1-8.5-3-8.4-8.7v-17.4c0-8.9 2.9-11.9 11.6-12.2h5.8v-12h-21.7v-7.6h21.8v-13.3c-7.7 0-15.2-0.3-22.7 0.1-5.2 0.3-5.8 4.5-5.8 8.8 0.1 22.5 0 45.1 0 67.6v6.3h-11.6v-6.5-66.4c0-15.1 3-18.2 18-18.6 1 0 1.9-0.2 3.6-0.3-2.2-4.9-3.9-9.5-6.3-13.8-0.6-1.1-2.9-1.7-4.4-1.8-4.8-0.2-9.5-0.1-14.8-0.1V460h44.7c-1.5-4.7-2.7-8.5-4-12.9 2.3-0.1 4.2-0.1 6-0.4 5-0.9 7.6 1.3 8.3 6 0.9 6.2 4.3 7.7 10.3 7.4 11.4-0.3 22.9 0 34.9 0z m-50.6 74.3c-15.1-0.1-12.7 0.5-12.8 12.4-0.1 11.2 0 11.2 14.5 11.2 11.1 0 11.1 0 11.1-10.8 0-12.9 0-12.9-12.8-12.8z m-18.5-65.2c5.6 15.9 6.8 17 26.6 15.6 8.8-0.6 6.7-10.1 11.2-15.6h-37.8zM447.4 493.5v13.1h22.8v7.7h-22.6v11.9c3.1 0.2 5.8 0.2 8.5 0.4 5.6 0.5 8.8 3.6 8.9 9.3 0.1 6.6-0.1 13.2 0.1 19.7 0.2 5.7-2.8 8.9-8.1 9-10.2 0.4-20.3 0.3-30.5 0.1-4.9-0.1-7.7-3.3-7.9-8.1-0.3-6.8-0.3-13.6 0-20.3 0.3-6.3 3.4-9.2 9.9-9.7 2.4-0.2 4.7-0.2 7.5-0.3 0.2-2 0.4-3.7 0.4-5.4 0.1-1.8 0-3.6 0-6.1h-22.1c-0.2-2.9-0.3-5.1-0.4-8.1h22.2v-13.1c-7.6 0-15.1-0.3-22.6 0.1-5.1 0.3-5.9 4.4-5.9 8.8V576.4h-10.9c-0.1-2-0.3-4.1-0.3-6.2V502c0-13.6 3.2-16.8 16.9-17.1 1.2 0 2.4-0.2 4.4-0.3-2.1-4.9-3.9-9.5-6.2-13.8-0.6-1.1-2.9-1.8-4.5-1.8-4.7-0.2-9.5-0.1-14.7-0.1v-8.8H437c-1.5-4.7-2.7-8.4-3.8-12.2 9.2-3.1 12.1-2 14.7 6.8 1.3 4.3 3.4 5.5 7.6 5.4 12.1-0.2 24.3-0.1 36.9-0.1v8.8c-4.9 0-9.8 0.2-14.6-0.1-3.3-0.2-5 0.9-6.1 4.1-1.3 3.7-3.2 7.2-5.3 11.9 3.4 0 6.3-0.1 9.1 0 7.8 0.5 12.2 4.7 12.3 12.5 0.2 22.1 0.1 44.3 0 66.4 0 6.9-3.2 10.3-10 11.1-4.9 0.5-10 0.4-14.9 0.3-5.8-0.1-3.3-5.2-6.3-8.8 5.8 0 9.9-0.1 14 0 4 0.1 5.8-1.6 5.8-5.7-0.1-20.3-0.1-40.7-0.1-61 0-3.8-1.6-6.2-5.5-6.3-7.7 0.2-15.3 0.3-23.4 0.3z m-5.6 40.9h-6c-3.4 0-7.3 0.4-6.6 4.8 1 6.3-4.3 14.3 4.5 18.7 0.2 0.1 0.4 0.1 0.6 0.1 5.2 0 10.4 0.3 15.5-0.2 1.7-0.2 4-2.1 4.6-3.7 4.8-12.2-0.1-19.7-12.6-19.7z m19.4-65.1h-37.8c5.3 15.6 7.2 17.2 27.1 15.4 8.2-0.7 6.2-10 10.7-15.4zM680.6 455.2h11.9v30.4c0 2-0.5 4.4 0.4 5.9 1.3 2.1 3.6 5.1 5.6 5.2 10.9 0.5 21.8 0.2 33.2 0.2V447h12.2v49.8c12 0 23.2 0.3 34.5-0.1 4-0.1 5.2-3.6 5.2-7.5-0.1-11.1 0-22.3 0-33.8h11.8v37.3c-0.1 8.7-4.5 13.3-13.3 13.4-10.2 0.1-20.3 0-30.5 0h-6.9v57.6c13 0 25.7 0.2 38.4-0.1 4.6-0.1 5.3-4 5.2-7.9-0.1-12.6 0-25.1 0-38.1h12.4v12.7c0 9.4 0.1 18.8 0 28.1-0.1 8.8-4.3 13.5-13.1 13.6-32.7 0.2-65.4 0.2-98.1 0.1-7.8 0-12.7-4.3-13.1-11.9-0.6-12.1-0.2-24.3-0.2-36.5 0-1.9 0.2-3.9 0.3-6.2H689v12.8c0 8.6 0.1 17.2 0 25.7 0 4.9 2.6 7.6 7.2 7.7 11.7 0.2 23.5 0.1 35.7 0.1v-57.6c-12.5 0-24.8 0.1-37.1 0-9.6-0.1-13.7-4.2-13.8-13.9v-10.2c-0.4-8.7-0.4-17.5-0.4-26.9zM898.7 566.2c6.9 0 13.5 0.4 20-0.2 2.2-0.2 5.9-3 5.9-4.7 0.4-20.1 0.3-40.2 0.3-60.8H871v-8.9h89.3v8.7h-22.5v60.6c0 10.4-4 14.5-14.4 14.6-5 0-10-0.4-14.9 0.1-6.9 0.7-9.6-2.3-9.8-9.4zM855.9 576.6h-12v-56.7c-3.6 4.1-6.2 7.1-9.1 10.3-2.7-1.8-5.5-3.6-7.6-5 8.5-13.4 16.5-26.6 25.4-39.2 1.6-2.3 6.9-2 10.5-2.9 0.5 0.6 1 1.2 1.5 1.7-4.8 8.9-9.7 17.9-14.8 27.3 2 0.3 3.9 0.5 6.1 0.8v63.7zM954.5 451.5v8.9h-76v-8.9h76zM392.4 522.2c-0.6 2.2-0.9 4-1.6 5.8-4.6 13.7-9.2 27.4-14 41.1-3.3 9.5-4.2 9.8-15.3 7.5 2.6-7.3 5.3-14.5 7.7-21.8 2.9-8.6 6.1-17.2 8.5-26 1.5-5.6 4.1-8.1 9.8-7 1.5 0.3 2.9 0.3 4.9 0.4zM548.7 521.9c-6.5 18.4-12.3 35.9-19.2 52.9-1 2.4-7.5 2.5-11.5 3.6-0.3-0.6-0.7-1.2-1-1.8 2.9-8.1 5.9-16.2 8.7-24.4 2.7-7.9 5.6-15.7 7.7-23.8 1.4-5.5 4-7.7 9.5-6.7 1.2 0.4 2.7 0.2 5.8 0.2zM837.8 489.5c-4.1-2.4-6.8-4-9-5.3 7.5-12.1 14.4-24.1 22.4-35.3 1.8-2.5 7.6-2.3 11.5-3.3l1.8 2.1c-8.8 13.8-17.6 27.5-26.7 41.8zM546 479.3c-13.2 1.4-13.1 1.4-17.5-9.4-3-7.5-6.4-14.8-9.6-22.3 11.3-1.8 11.4-1.9 15.8 7.3 3.8 7.9 7.3 15.8 11.3 24.4zM363.6 447.4c11.5-1.5 11.6-1.5 16.3 8.4 3.6 7.6 7 15.3 10.9 24-4.8 0-8.3 0.1-11.8-0.1-0.9-0.1-2.2-1-2.6-1.8-4.4-10.1-8.5-20.3-12.8-30.5zM517.6 484.7c14.6-0.4 11-2.2 17 9.5 3 5.9 5.5 11.9 8.1 17.9 0.1 0.3 0 0.8 0 1.2-9.2 3-11.8 1.8-15.3-6.4-3-7.2-6.3-14.4-9.8-22.2zM362.4 484.9c11.8-1.4 11.9-1.5 16.7 8.6 2.9 6.1 5.6 12.3 8.4 18.5 0.2 0.3 0.1 0.8 0.2 1.2-8.5 3.3-12 1.9-15.4-6-3.2-7.3-6.5-14.5-9.9-22.3z" fill="#666666" p-id="6573"></path><path d="M245.2 465.2v-33.7c0-1.1-0.9-2-2-2H71c-3.3 0-5.9 2.7-5.9 5.9v75.3c0 7.9 8.2 43.3 35.6 67.3 31.7 27.7 91.1 39.6 132.7 11.9 35.6-23.8 53.5-62.2 53.5-83.2v-39.6c0-1.1-0.9-2-2-2h-39.7v0.1z m-1.9 37.6c0 15.8-17.8 61.4-67.3 61.4s-69.3-45.6-69.3-61.4v-29.7c0-3.3 2.7-5.9 5.9-5.9h130.7v35.6z" fill="#F3B043" p-id="6574"></path></svg>