<?xml version="1.0" standalone="no"?><!DOCTYPE svg PUBLIC "-//W3C//DTD SVG 1.1//EN" "http://www.w3.org/Graphics/SVG/1.1/DTD/svg11.dtd"><svg t="1677575761052" class="icon" viewBox="0 0 1024 1024" version="1.1" xmlns="http://www.w3.org/2000/svg" p-id="9129" xmlns:xlink="http://www.w3.org/1999/xlink" width="512" height="512"><path d="M199.1 537.9c1.8 25.9 4.2 51.1 14.4 74.8 1.7 4 4.7 7.6 7.7 10.9 3.7 4.1 9.9 3.8 14.3-0.4 8.6-8.2 11.9-19.2 15.1-30.1 2.1-7 3.2-14.3 4.5-21.5 0.7-4.1 2.2-6.7 6.9-7.4 4.8-0.7 9.3-2.5 15.2-4.2-1.9 9.3-3.2 17.9-5.3 26.4-5.9 23.4-13.1 46.3-28.3 65.7-6.6 8.3-14.2 15.4-24.5 19.1-12.5 4.5-23.2 0.4-32.9-7.2-12.8-10.2-20.1-24.3-26-39.2-9.9-24.7-14.8-50.6-17.1-77.1-0.1-1.5-0.6-3-0.6-3.3-16.3-3.8-32-7-47.4-11.1-11.1-3-20.8-9.1-28.8-17.5-15-15.5-12.8-36-3.2-52.6 12.3-21.1 30.7-35.8 51.3-47.9 10.9-6.4 22.4-11.7 34.2-17.7 1.6 3.7 2.8 6.6 4.3 10.1-7.5 4.2-15.3 7.5-21.9 12.5-9.9 7.5-20.3 14.9-28 24.4-13.3 16.5-8.8 32.5 10.8 40.6 9.3 3.9 19.5 5.3 29.2 7.9 2.9-15.9 4.9-30.4 8.4-44.5 5.1-20.3 13.5-39.1 29.1-54 19.5-18.5 47.3-16.8 64.1 4.2 4.4 5.5 8.2 11.6 12.1 17.6 1.1 1.6 1.4 3.7 2.2 5.7-6.5 2.8-12.1 2.9-18.2-1.1-7.8-5-18.3-1.7-23.5 8.7-5.4 10.8-9 22.6-12.3 34.2-2.1 7.1-2.2 14.8-3.4 23.9 12.2-3.4 23.3-5.3 33.3-9.6 16.3-6.9 32.4-14.6 47.7-23.5 7-4.1 13.1-11 17.7-17.9 9.6-14.3 5.9-27.9-8.6-37.1-3.2-2-6.6-3.7-10.1-5.2-9.3-4-11-6.8-10.1-17.9 20.3 1 40.1 3.8 58.5 13 29.9 14.8 36.8 43.6 17.1 70.6-15.6 21.3-36.7 35.5-59.8 47.3-27.6 14.3-57 23.2-88.1 30.4zM424.3 506.9c-8 1.6-16.8-7.3-14.7-15.7 2.5-10 6.4-19.6 9.8-29.3 2.1-6 4.4-11.8 7.4-19.7 2.5 7.1 4.4 12.2 6.3 17.7 8.9-4.1 17.6-7.4 25.3-12.2 2.7-1.6 4.2-7 4.3-10.7 0.3-8.6-0.6-17.3-1-26-0.1-1.9 0-3.9 0-6.3 9.1 1.9 13.7 7.4 17.4 14.8 2.4 4.9 6.1 11.1 10.6 12.6 6.6 2.1 14.4 0.6 21.5 0.6 1.4 2.7 2.4 4.6 3.1 5.8-5.5 3.6-12.6 6.1-15.6 11-2.6 4.3-0.5 11.5-0.5 17.6 14.4-1.8 27-18.1 28-32.8 0.4 2.6 1.5 5.4 1.1 7.8-2.6 14.7-5.1 29.5-8.7 44-0.8 3.3-5.7 7-9.3 8-6 1.7-9.5 4.3-11.5 10.3-3.6 10.9-9.5 20.9-8.6 33.3 0.4 5.5-3.8 11.1-5 16.9-1.4 6.8-1.6 13.9-2.9 20.8-0.4 2.1-2.9 5.7-4.2 5.5-3.1-0.3-6.1-2.3-9.8-3.9 12.4-6 1.2-11.8 0.8-17.2v7.2c-0.7 0.1-1.4 0.1-2.2 0.2-1.3-18.6-2.6-37.2-4-56.9-8 2-14.5 3.1-20.6 5.3-8.4 3.2-12.3 2-15.7-6.3-0.3-1-0.9-1.7-1.3-2.4z m36.5-43.8c-18.5 6.3-34.3 24.5-32.2 35.9 7.8-2.9 15.8-5.7 23.5-9 2.6-1.1 4.9-3.4 7.1-5.4 7.2-6.6 2.6-14.1 1.6-21.5zM816.7 540.8c-5.3 15.6-19.5 12.9-29.7 17.1-10.6 4.4-22.9 5.7-34.6 2.1-9.8-2.9-18.5-6.9-20.1-19.1-0.8-5.8-2.2-11.4-10.5-13-5.5-1-10.3-6.5-14.8-10.6-1.3-1.1-1.6-4.9-0.6-6.6 4.6-8.5 3.1-17.6 4.1-26.5 0.8-7.2 3.7-14.2 5.6-21.2 10.4 5.7 9.9 14.4 8.3 23.5 6.7-1.6 13.7-8.5 13.9-13.9 0.1-1.4-2.2-3.4-3.8-4.3-1.4-0.7-3.5-0.1-5.3-0.1-0.2-0.6-0.4-1.2-0.7-1.9 1.5-1.4 2.8-3.6 4.5-4.2 10.1-3.2 10.9-12.2 13.3-20.3 1.4-4.8 2.6-9.7 3.8-14.4 10.2 1.1 13.2 5.4 12.2 15.9-0.2 2 0.1 4 0.1 6 2.1-0.7 4.5-1.2 6.4-2.3 7.4-4.4 14.7-7.8 23.6-3.1 6 3.2 13.2 15.1 11.4 22.2-1.7 6.8-4.7 13.3-6.4 20.1-0.8 3.2-1 7.4 0.5 10.2 4.2 8-0.8 19-9.9 20.7-7.8 1.5-15.5 3.2-23.1 5.3-6.6 1.8-9.2 6.7-7.5 12.6 1.7 6.1 5.7 8.1 12.5 6.6 9.5-2 19-3.8 28.4-5.7 1.5-0.3 3-0.8 4.5-1.3 10-3.4 10.9-3 13.9 6.2z m-58.9-72.7c9 3.8 16.3-1.2 23.7-4.7 1.6-0.7 3.7-2.9 3.5-4-0.4-1.6-2.3-3.3-4-4.3-6.8-3.9-12.1 1.3-18 3.2-4.6 1.5-6.6 4.8-5.2 9.8z m20.9 15c-0.5-0.5-2.3-3-2.8-2.8-5.5 2.8-11.3 5.4-15.8 9.4-1.8 1.6-3 7.7 2.9 8.7 6 1.1 15.6-7.6 15.7-15.3z m-58.8 32.4c11.9-2.6 14.7-9.1 12.3-18-9.5-1-13.9 5.2-12.3 18zM662.5 575.9c-7.5-3-12-8-14.3-15.6-1.5-4.8-5.3-8.9-7.5-13.5-1.7-3.4-2.6-7.3-2.6-11.6 3.1 2.2 6.2 4.4 9.2 6.7l2.1-0.6V493c-5.9 0.7-11.6 1.4-17.7 2.1 1.9-4.5 3.7-8.9 5.8-13.8 3.7 0.8 8 1.7 12.2 2.6 0.5-4.8 1.1-9.7 1.4-14.6 0.7-10.9 1.5-21.7 1.8-32.6 0.3-9.1-2.9-12.6-11.8-12-8.3 0.6-16.6 2.1-24.6 4.3-8.4 2.3-16.4 6.1-24.7 8.7-5.1 1.5-10.1 0.6-14.4-4.4 18.1-3.8 33-15.6 51.7-16.7 8-0.5 15.9-3.2 23.9-4.4 2.3-0.3 6.3 0.2 7.2 1.8 3.6 6.1 11.2 10.9 7.2 20-1 2.3 0.1 5.6 0.4 8.5 0.1 1.1 0.6 2.1 0.6 3.2 0.5 30.2 0.9 60.3 1.3 90.5 0.1 8.1-0.4 16.2 0.2 24.2 0.4 6.6-2 11.4-7.4 15.5z" fill="#01618F" p-id="9130"></path><path d="M627.1 436.9c8.2 9.6 8.2 10.3 0.2 20.7-6.6 8.5-6.5 10.4 2.1 16.4 4.6 3.2 3.7 6.4 1.2 9.9-2.4 3.4-5.5 6.3-7.7 9.8-1.2 1.9-1.4 4.4-1.9 6.3 0.9 0.8 1.2 1.1 1.6 1.3 3.7 1.4 9.8-0.2 9.8 5.4 0 2.8-3.9 6.5-6.9 8.1-10.8 5.6-21.8 10.9-33 15.5-2.5 1-6.8-0.2-9.4-1.8-3.4-2.2-2.9-6-0.8-9.4 1.5-2.4 2.6-5.1 4.5-7.1 3.8-4 3.9-8.2-0.4-11.6-3-2.4-6.2-4.5-11.3-8.2 6.6-4.2 11.6-8.7 17.5-10.8 5.4-2 4.9-5.5 4.8-9.3-0.1-4.1-2.8-5.1-6.5-4.7-3.5 0.3-6.4 0.3-7.4-4.5-0.4-1.9-3.9-3.1-7.3-5.4 8.7-4.4 16.5-9.1 24.9-12.5 8.1-3.3 16.9-5.3 26-8.1zM927 522.3c-5.1 2.5-9.8 4.7-13.4 6.5-1.5 11.7-3 23.5-4.5 35.7-13.5-6.1-14.4-6-15.7-20-1.2-12.4-0.2-25-0.2-39.3 4.7 4 8.1 7.5 12.2 10.1 2 1.3 5.6 1.7 7.6 0.8 5.8-2.6 11.2-6 16.6-9.3 7.5-4.6 21.5 1.3 21.9 10.1 0.4 8-0.9 16.1-3 24 1.5 1.9 3.6 3.6 4.3 5.8 2 5.7-4.6 11.9-10.9 10.8-2.8-0.5-5.9-0.4-8.7 0.1-5.9 1-11.1-0.5-15.7-4.1-3.4-2.7-1.8-7.9 2.1-13.4 3.6-5.2 10.8-9 7.4-17.8zM863 561.7c-7.2-6.3-5.3-12.1-4.3-17.6 2.8-14.7 6.9-29.3 4.5-44.5-0.4-2.4-2-4.6-3-6.9-2.2 1.2-4.9 2-6.6 3.7-3.6 3.7-6.8 8-9.9 11.7-1-2.4-3.2-5.5-3.3-8.7-0.1-5.5 0.2-11.4 2-16.5 4.7-13 10.4-25.7 15.7-38.5 0.5-1.1 1.1-2.1 2.3-4.2 5.2 11 10.9 20.8 6.7 33 2.7 1.3 6 2 7.9 4 2 2.1 4 5.5 3.9 8.2-0.2 8.6-1.4 17.2-2.3 25.8-1.2 11.4-1.9 22.9-4.3 34-1.2 5.7-5.8 10.6-9.3 16.5zM958.1 597.3v40.1h-9.5c-0.7-6.3-1.3-12.3-2.2-19.8-4.6 6-8.3 10.9-12.1 15.8-4.9 6.4-7.9 6.4-12.7-0.4-3.4-4.8-6.7-9.7-11.8-14.3v11.6c0 8.3 0 8.3-8.7 5.9V597c5.5-3 8.8-1.3 11.9 3.8 5 8.1 10.9 15.7 17 24.3 5.7-7.9 11.3-15.2 16.3-23 2.9-4.6 6.1-6.8 11.8-4.8zM921.3 432.7c-3-1.4-6.1-2.8-9.1-4.2-1.5-0.7-2.9-1.6-4.3-2.4 1-1.6 1.7-3.5 2.9-4.7 1-1 3.6-1 4-2.1 3.8-10 9.8-4.7 15.2-2.2 6.3 2.9 12.9 5.9 9 15.5 7.7 0.6 14.2 1.1 21.4 1.7-4.4 7.7-8.5 12-17.9 12-16.5 0-32.9 2.3-49.4 3.9-2.3 0.2-4.5 2.3-6.8 2.3s-4.5-1.6-6.8-2.5c1.3-1.7 2.4-4.4 4-4.8 9-2.2 18.1-3.6 27.1-5.7 3.7-0.8 7.1-2.5 10.7-3.8v-3zM466.8 619.6v18.2h-11.1v-42.2h11c0.1 2.3 0.3 4.5 0.3 6.7 0.1 12.2 0.1 12.2 13.6 10.6v-8.4-8.9h12.1v42.2h-11.9v-18.2h-14zM892.7 616.5c0.9 14.3-8.7 20.9-20.3 21.4-14.7 0.7-22.5-7.3-22.5-21.9 0-13.1 8-20.3 21.4-21 11.3-0.5 23.2 8.3 21.4 21.5z m-30.9 0v3.3c0.1 8.7 2.4 11.7 9 11.7 7.4 0.1 10.2-3.2 10.3-12.1 0.1-3.1 0.1-6.2-0.1-9.3-0.5-6.7-3.5-9.2-10.4-9.1-6.2 0.1-8.5 3.9-8.7 9.4-0.2 2.1-0.2 4.1-0.1 6.1zM562.5 618v-22.3h8.1c0 13.1 0.3 26-0.2 38.9-0.2 4.6-3.2 3.8-5.8 1.1-6.3-6.4-12.6-12.7-19-18.9-1.5-1.5-3.2-2.8-6.2-5.4v26.3h-7.3v-43.3c3.3 1.6 6.5 2.2 8.5 4.1 6.9 6.6 13.4 13.7 20 20.5 0.6-0.3 1.2-0.6 1.9-1zM577.1 635.7c5.4-12.1 10.7-24.4 16.5-36.4 0.9-1.8 3.9-3.5 6.1-3.6 2.2-0.1 5.8 1 6.6 2.7 6.2 12.5 11.8 25.3 17.7 38-9.6 3.2-10.5 2.7-15-5.1-1.1-1.9-4.1-3.7-6.4-3.8-6.5-0.5-13.4-1.5-15.8 7.8-0.4 1.5-5.6 1.7-8.6 2.6-0.4-0.7-0.8-1.4-1.1-2.2z m16.2-15.1h11.2c-1.9-4.3-3.6-7.9-5.8-12.9-2.2 5.2-3.8 8.9-5.4 12.9z" fill="#01618F" p-id="9131"></path><path d="M569.5 443.3c8.4 15.4 6.3 31.3 2.5 47.4-1.6 6.8-5.3 14.3-3.9 20.4 1.8 7.6-1.8 14.6 0.4 22 1.2 4-0.5 8.8-1 13.8-8-1.5-7.5-7.6-7.6-11.6-0.2-9.5 0.9-19.1 1.8-28.6 1.5-17 3.2-33.9 4.8-50.9 0.4-4.3 0.3-8.6 0.5-12.9 0.8 0.2 1.7 0.3 2.5 0.4zM768.4 595.5h30.7c1 4.1 0.3 6.2-4.3 5.8-5.1-0.4-10.2-0.1-15.2-0.1v12.3h14.3c0.3 5.1 0.3 5.1-14.7 5.9v12.3h21.1c1.4 4.5 0.7 6.4-3.9 6.4-9.2-0.2-18.3-0.1-28-0.1v-42.5zM717.8 601.3h-19.4v12.1h14.4c0.8 5.4 0.8 5.4-14.4 6v12.7c5.8 0 11.3 0.2 16.9-0.1 4.2-0.2 5.3 1.5 3.9 5.6h-31.7v-42h30.4c-0.1 1.7-0.1 3.5-0.1 5.7zM448.2 630.6c-2 3.3-2.6 6.1-4.2 6.8-10 4.6-28.4-3.2-32.3-13.4-4.9-12.7 5.6-28.5 19.1-28.7 3.6-0.1 7.3-0.5 10.7 0.2 2.2 0.5 4 2.9 5.5 5.4-9.3-0.6-17.8-0.8-22.8 8.1-3.3 5.9-2.7 12.1 1.1 17.7 3.3 4.7 10.2 6 22.9 3.9zM845.6 631.2c-1.9 2.8-2.9 6-4.4 6.2-9.2 1.5-18.3 0.7-26-5.3-6.8-5.2-8.7-12.5-6.4-20.3 2.4-8.3 7.9-14.6 16.8-16.4 4.5-0.9 9.4-0.6 14 0 2 0.3 3.7 2.9 5 5.5-8.2-0.3-16.2-1.2-21.2 5.8-2.3 3.2-3.3 7.9-3.2 11.9 0.3 10.7 7.3 14.2 25.4 12.6zM657.6 601.7h-12.9c-0.1-2.2-0.2-4-0.3-6.2h36.4c0.6 5.6 0.6 5.6-12.4 6.4v35.6h-10.9c0.1-11.7 0.1-23.5 0.1-35.8zM739.2 631.7c6.4 0 11.7-0.2 17 0.1 1.5 0.1 2.8 1.7 4.2 2.6-1.4 1.1-2.7 3-4.1 3.1-9.3 0.3-18.7 0.1-28.4 0.1v-40.7h11.2c0.1 11.2 0.1 22.5 0.1 34.8zM518.7 637.6h-11.6v-41.5h11.6v41.5zM944.9 480.5c-5.6 16.3-6.9 16.8-23.2 13.7-8.3-1.6-14.3-4.8-17.3-13.4 13.7-5.9 26.9-2.2 40.5-0.3zM576.2 543c21 1.4 38.5-9.4 58.5-13.8-13 10.2-25.7 18.9-40.9 23.5-11.8 3.5-12.9 3.1-17.6-9.7zM941.6 472.6c-12.4 0.9-22.1-4.7-32.2-12.7 3.1-1.8 5.6-4 8.4-4.7 7.9-2 16.1-1.3 22.8 3.3 5.2 3.7 4.3 9.2 1 14.1z" fill="#01618F" p-id="9132"></path></svg>