<svg xmlns="http://www.w3.org/2000/svg" xmlns:xlink="http://www.w3.org/1999/xlink" width="191" height="83" viewBox="0 0 191 83" fill="none"><rect x="0" y="0" width="0" height="0" fill="rgba(249, 249, 249, 1)" /><path id="矩形 1" fill-rule="evenodd" style="fill:#CCCCCC" transform="translate(0 0)  rotate(0 95.5 41.5)" opacity="0" d="M0,83L191,83L191,0L0,0L0,83Z " /><rect  id="矩形 1" style="stroke:#C90465; stroke-width:1; stroke-opacity:1; stroke-dasharray:2 2" transform="translate(0 0)  rotate(0 95.5 41.5)" x="0.5" y="0.5" rx="0"  width="190" height="82" /><g opacity="1" transform="translate(78 19)  rotate(0 49.5 22)"><text><tspan x="0" y="17.099999999999998" font-size="18" line-height="0" fill="#C90465" opacity="1" font-family="Itim-Regular" letter-spacing="0"  >add</tspan><tspan x="29.25" y="17.099999999999998" font-size="18" line-height="0" fill="#C90465" opacity="1" font-family="Itim-Regular" letter-spacing="0"  > your</tspan><tspan x="68.05799999999999" y="17.099999999999998" font-size="18" line-height="0" fill="#C90465" opacity="1" font-family="Itim-Regular" letter-spacing="0"  > </tspan><tspan x="0" y="38.699999999999996" font-size="18" line-height="0" fill="#C90465" opacity="1" font-family="Itim-Regular" letter-spacing="0" >organization</tspan></text></g><path id="分组 1" fill-rule="evenodd" style="fill:#C90465" transform="translate(21 22)  rotate(0 18.500000000000004 18.5)" opacity="1" d="M37 18.5C37 8.28 28.72 0 18.5 0C8.28 0 0 8.28 0 18.5C0 28.72 8.28 37 18.5 37C28.72 37 37 28.72 37 18.5Z M16.65 9.25021L16.65 16.6502L9.24999 16.6502L9.24999 20.3502L16.65 20.3502L16.65 27.7502L20.35 27.7502L20.35 20.3502L27.75 20.3502L27.75 16.6502L20.35 16.6502L20.35 9.25021L16.65 9.25021Z " /></svg>