<?xml version="1.0" standalone="no"?><!DOCTYPE svg PUBLIC "-//W3C//DTD SVG 1.1//EN" "http://www.w3.org/Graphics/SVG/1.1/DTD/svg11.dtd"><svg t="1677575053624" class="icon" viewBox="0 0 1024 1024" version="1.1" xmlns="http://www.w3.org/2000/svg" p-id="6942" xmlns:xlink="http://www.w3.org/1999/xlink" width="512" height="512"><path d="M868.726587 584.733535h-94.587261c-29.940916-0.071631-54.274114-24.64633-54.327327-54.925961v-4.649903c0.053212-30.280654 24.38641-54.836933 54.327327-54.908564h94.587261c29.922497 0.071631 54.236252 24.62791 54.30072 54.908564l0.008187 4.649903c-0.072655 30.27963-24.387433 54.854329-54.308907 54.925961z m0-149.648299h-94.587261c-49.454342 0.019443-89.660042 40.422641-89.660043 90.072435v4.649903c0 49.66719 40.206724 90.070388 89.660043 90.089832h94.587261c49.408293-0.019443 89.632413-40.422641 89.632414-90.089832v-4.649903c0-49.650817-40.22412-90.052992-89.632414-90.072435zM196.883089 620.754936h0.40216c18.49319 0.071631 33.295314-8.317433 46.798862-27.615964l85.294618-125.484969a18.97312 18.97312 0 0 0 3.282767-10.677177 18.974144 18.974144 0 0 0-8.094353-15.562441 18.544355 18.544355 0 0 0-10.569729-3.307326A18.687618 18.687618 0 0 0 298.553677 446.297602l-85.277222 125.468597c-5.187139 7.960299-10.893094 11.231809-16.356527 11.231808l-0.115633 0.01842c-6.502088-0.089028-11.231809-3.593851-16.473183-11.250228l-85.295642-125.467573a18.596544 18.596544 0 0 0-15.426341-8.190543 18.556635 18.556635 0 0 0-10.579963 3.307325 18.951631 18.951631 0 0 0-8.101515 15.561418c-0.00921 3.683902 1.073448 7.404644 3.290953 10.6782l85.286432 125.46655c11.813047 17.420765 29.064966 27.633361 47.299259 27.63336h0.078794zM549.844933 620.754936h0.402159c18.475793 0.071631 33.275871-8.317433 46.78863-27.615964l85.304851-125.484969a19.034519 19.034519 0 0 0 3.273557-10.677177c0-5.991458-2.826372-11.875468-8.094352-15.562441a18.593474 18.593474 0 0 0-10.58815-3.307326 18.585287 18.585287 0 0 0-15.418154 8.190543l-85.278245 125.467573c-5.203512 7.960299-10.891048 11.231809-16.346294 11.231809l-0.142239 0.01842c-6.493901-0.089028-11.222599-3.612271-16.473183-11.250229L448.004477 446.297602a18.654872 18.654872 0 0 0-15.433504-8.190543c-3.65832 0-7.342222 1.090844-10.579963 3.307326a18.915815 18.915815 0 0 0-8.109702 15.562441c-0.00921 3.682879 1.072425 7.40362 3.281743 10.677177l85.295642 125.466549c11.822257 17.438161 29.055756 27.633361 47.290049 27.633361h0.098238v0.001023h-0.002047zM398.37208 393.46635l-19.727297-19.744693a7.476275 7.476275 0 0 0-5.176906-2.218528h-0.323365c-1.913583 0.035816-3.800559 0.768503-5.240351 2.218528l-19.727297 19.744693a7.582699 7.582699 0 0 0 0 10.712992l19.727297 19.745717a7.680936 7.680936 0 0 0 5.383614 2.218528 7.609305 7.609305 0 0 0 5.331425-2.201132l19.754926-19.763113a7.54893 7.54893 0 0 0 2.217505-5.365194c-0.001023-1.930979-0.74292-3.898797-2.219551-5.347798z m-25.083282 44.641733c-10.391674 0-18.833951 8.300037-18.83395 18.619056v145.408741c0 10.301623 8.442276 18.60166 18.83395 18.619056 10.365068-0.01842 18.797112-8.317433 18.797112-18.619056l0.018419-145.408741c0-10.320043-8.460696-18.619056-18.815531-18.619056z" fill="#272536" p-id="6943"></path></svg>