<?xml version="1.0" standalone="no"?>
<!DOCTYPE svg PUBLIC "-//W3C//DTD SVG 20010904//EN"
 "http://www.w3.org/TR/2001/REC-SVG-20010904/DTD/svg10.dtd">
<svg version="1.0" xmlns="http://www.w3.org/2000/svg"
 width="1024.000000pt" height="1024.000000pt" viewBox="0 0 1024.000000 1024.000000"
 preserveAspectRatio="xMidYMid meet">
<metadata>
Created by potrace 1.11, written by Peter Selinger 2001-2013
</metadata>
<g transform="translate(0.000000,1024.000000) scale(0.100000,-0.100000)"
fill="#000000" stroke="none">
<path d="M3434 7612 c3 -6 1 -14 -5 -18 -6 -3 -15 0 -20 7 -7 12 -9 11 -9 -1
0 -12 -2 -12 -9 -1 -6 9 -11 10 -15 2 -4 -6 -13 -8 -19 -4 -18 11 -36 12 -43
2 -3 -5 -10 -9 -15 -9 -6 0 -7 6 -3 13 5 8 2 8 -9 -2 -14 -11 -17 -11 -17 0 0
11 -2 11 -8 2 -4 -7 -36 -13 -74 -15 -36 -2 -64 -6 -61 -10 2 -5 -1 -8 -6 -8
-6 0 -11 5 -11 11 0 5 -5 7 -10 4 -6 -4 -7 -11 -4 -17 4 -7 2 -8 -5 -4 -20 12
-61 14 -54 3 4 -6 0 -8 -10 -4 -9 3 -18 1 -20 -6 -3 -9 -9 -8 -22 3 -11 9 -16
10 -11 3 7 -12 -5 -18 -28 -14 -4 1 -15 -4 -24 -11 -12 -10 -14 -10 -8 -1 5 9
2 11 -8 7 -9 -3 -13 -11 -9 -18 4 -6 -1 -5 -10 3 -13 10 -17 10 -17 1 0 -7 -6
-10 -14 -7 -8 3 -17 1 -19 -6 -3 -9 -8 -8 -21 2 -14 12 -16 12 -11 -1 4 -9 -1
-18 -10 -22 -11 -4 -14 -2 -9 7 6 9 5 9 -8 0 -8 -7 -18 -10 -21 -6 -4 3 -7 -2
-8 -13 0 -10 -3 -14 -5 -8 -3 7 -17 5 -43 -8 -22 -10 -48 -20 -60 -21 -12 -1
-21 -5 -21 -10 0 -5 -7 -6 -16 -3 -13 5 -14 4 -6 -7 9 -11 5 -13 -22 -12 -19
0 -32 -3 -30 -7 3 -4 -5 -12 -16 -18 -15 -8 -20 -8 -20 2 -1 7 -7 2 -14 -11
-10 -18 -15 -20 -19 -10 -4 10 -6 8 -6 -5 -1 -11 -4 -16 -8 -13 -3 4 -12 -1
-20 -11 -8 -9 -12 -12 -9 -5 4 6 2 15 -4 18 -6 4 -10 3 -9 -2 5 -27 -1 -35
-16 -23 -13 11 -14 10 -9 -3 4 -12 1 -15 -16 -12 -18 4 -20 2 -9 -11 10 -12 9
-13 -5 -8 -11 4 -16 1 -16 -11 0 -9 -5 -13 -10 -10 -6 4 -7 11 -4 17 4 7 2 8
-5 4 -6 -4 -9 -12 -6 -17 4 -5 -1 -9 -10 -9 -9 0 -14 -4 -11 -9 4 -5 -4 -7
-16 -4 -18 4 -20 3 -8 -6 12 -8 8 -12 -19 -17 -32 -7 -33 -8 -15 -22 18 -13
18 -14 -5 -7 -17 5 -21 4 -16 -5 4 -7 1 -10 -11 -8 -13 2 -19 -3 -18 -15 2
-15 -1 -16 -14 -5 -11 9 -14 9 -9 1 8 -13 -26 -37 -37 -25 -4 3 -4 -2 0 -13 7
-18 6 -19 -11 -5 -10 8 -16 10 -12 3 9 -14 -29 -57 -43 -48 -5 3 -12 0 -16 -6
-5 -8 -3 -9 6 -4 8 5 11 3 8 -6 -3 -8 -11 -14 -19 -14 -8 0 -13 -8 -13 -17 1
-10 -1 -17 -5 -16 -3 0 -15 0 -26 -1 -17 -1 -18 -3 -5 -11 13 -8 12 -10 -3
-10 -10 0 -15 -4 -12 -10 3 -5 1 -10 -5 -10 -6 0 -8 -4 -5 -10 4 -6 -1 -7 -11
-3 -13 5 -16 3 -11 -10 6 -16 -4 -22 -27 -18 -5 1 -3 -5 4 -14 7 -9 9 -15 4
-14 -19 3 -34 -1 -34 -12 0 -5 5 -7 12 -3 7 4 8 3 4 -5 -4 -6 -12 -9 -17 -6
-5 4 -12 -2 -16 -12 -4 -10 -14 -23 -22 -30 -9 -7 -12 -13 -7 -13 6 0 1 -7
-10 -16 -10 -8 -13 -12 -5 -8 10 5 12 3 7 -5 -5 -7 -15 -10 -23 -6 -13 4 -14
3 -3 -10 12 -14 7 -20 -14 -16 -5 1 -6 -5 -3 -13 4 -9 2 -18 -3 -21 -6 -4 -10
-1 -10 4 0 6 -4 11 -10 11 -6 0 -6 -9 0 -25 8 -20 7 -23 -7 -18 -11 4 -14 3
-9 -5 4 -7 2 -12 -4 -12 -6 0 -9 -4 -6 -9 3 -5 -1 -12 -10 -15 -8 -3 -12 -10
-9 -16 3 -5 1 -10 -5 -10 -6 0 -8 -5 -4 -12 5 -8 1 -9 -12 -4 -15 6 -16 4 -7
-5 9 -9 8 -15 -3 -26 -8 -8 -11 -20 -7 -26 4 -7 -2 -5 -12 3 -17 14 -18 14 -8
-4 12 -22 -9 -66 -32 -66 -8 0 -12 -11 -10 -30 2 -25 0 -28 -11 -19 -12 10
-13 8 -8 -6 5 -12 4 -16 -4 -11 -6 3 -14 1 -18 -5 -4 -8 -3 -9 4 -5 21 13 13
-12 -10 -35 -13 -12 -17 -19 -11 -15 9 5 11 2 7 -8 -3 -9 -10 -14 -14 -11 -10
6 -22 -24 -14 -36 3 -5 1 -9 -5 -9 -5 0 -11 6 -14 13 -3 6 -5 3 -6 -8 -2 -43
-5 -55 -13 -55 -5 0 -6 -6 -2 -12 5 -8 0 -7 -11 2 -17 14 -18 14 -6 -7 10 -19
9 -22 -4 -17 -11 5 -14 2 -8 -12 5 -13 3 -15 -7 -9 -10 6 -12 4 -7 -8 4 -12 1
-17 -11 -17 -15 0 -15 -2 -2 -10 13 -9 7 -14 -12 -11 -4 0 -5 -6 -2 -14 4 -9
0 -15 -7 -15 -8 0 -22 -14 -31 -30 -9 -17 -13 -30 -8 -30 4 0 10 6 13 13 2 6
7 10 10 7 4 -3 -5 -18 -18 -32 -13 -14 -21 -29 -17 -34 4 -4 -2 -4 -12 0 -16
6 -17 4 -6 -9 7 -9 9 -15 4 -14 -21 4 -28 -2 -14 -11 13 -8 12 -10 -4 -10 -13
0 -17 -5 -13 -19 3 -14 1 -18 -9 -14 -9 3 -12 -2 -9 -16 2 -12 0 -19 -6 -16
-8 6 -13 -9 -10 -29 1 -5 -5 -6 -14 -2 -13 5 -14 2 -4 -17 11 -20 11 -21 -4
-9 -13 11 -15 10 -10 -7 3 -12 0 -22 -6 -22 -26 -3 -30 -4 -38 -12 -4 -5 -3
-8 2 -7 27 6 38 -2 16 -11 -17 -7 -22 -15 -18 -29 4 -17 3 -18 -16 -8 -19 10
-20 9 -10 -4 10 -11 10 -17 0 -28 -10 -10 -9 -12 3 -6 8 4 6 1 -4 -8 -10 -8
-24 -13 -30 -9 -7 4 -7 1 1 -7 12 -13 7 -40 -9 -40 -5 0 -6 6 -2 13 4 7 3 9
-2 4 -5 -5 -9 -12 -9 -15 0 -4 -4 -14 -10 -22 -8 -13 -7 -13 8 -1 22 18 22 9
-2 -17 -10 -12 -21 -20 -25 -17 -3 3 -2 -1 4 -7 8 -9 4 -18 -12 -31 -13 -10
-17 -16 -11 -12 8 4 11 1 7 -8 -3 -9 -14 -13 -27 -11 -12 2 -16 2 -9 -2 6 -3
12 -10 12 -15 0 -6 -4 -8 -8 -5 -5 3 -9 0 -10 -7 -3 -33 -10 -48 -35 -67 -17
-13 -24 -26 -20 -37 5 -12 3 -14 -8 -8 -12 8 -12 6 0 -9 12 -15 12 -17 0 -14
-8 2 -13 -4 -12 -15 1 -13 -4 -17 -14 -12 -14 5 -14 3 -2 -12 8 -9 9 -14 4
-11 -6 4 -17 3 -25 -3 -10 -5 -11 -9 -3 -9 7 0 10 -7 6 -17 -5 -12 -3 -14 8
-8 12 8 12 6 1 -8 -8 -9 -22 -19 -33 -22 -10 -4 -19 -11 -19 -16 0 -6 5 -7 12
-3 7 5 8 3 4 -5 -5 -7 -15 -10 -25 -6 -12 5 -13 4 -4 -6 10 -10 9 -15 -5 -26
-11 -10 -12 -12 -2 -8 8 4 4 -2 -9 -13 -13 -11 -21 -24 -17 -31 4 -6 2 -11 -4
-11 -13 0 -3 -43 11 -48 5 -2 9 -10 9 -18 0 -8 5 -14 11 -14 5 0 8 -4 5 -9 -3
-5 1 -11 9 -15 8 -3 15 -12 15 -21 0 -8 4 -15 9 -15 5 0 12 -7 15 -16 5 -14 4
-15 -9 -4 -13 11 -14 10 -9 -4 3 -9 12 -16 20 -16 8 0 14 -9 14 -20 0 -11 5
-20 11 -20 5 0 8 -4 5 -9 -3 -5 3 -11 14 -14 13 -3 18 -10 14 -21 -3 -9 -1
-16 5 -16 6 0 10 -3 9 -7 -3 -18 23 -64 33 -57 8 4 8 0 0 -15 -7 -12 -8 -21
-2 -21 5 0 11 4 13 10 2 5 8 -2 15 -16 9 -21 9 -23 -1 -15 -9 8 -13 7 -13 -4
0 -7 3 -14 6 -13 20 2 31 -3 26 -12 -3 -6 -2 -10 4 -10 6 0 7 -8 4 -17 -5 -12
-2 -15 9 -10 12 4 14 1 11 -14 -3 -11 0 -19 6 -19 7 0 9 -5 6 -10 -4 -6 -1 -9
7 -8 8 2 13 -6 12 -19 -1 -12 1 -22 5 -21 18 2 22 -4 12 -16 -10 -12 -8 -14
11 -9 18 4 20 3 8 -6 -10 -7 -11 -11 -2 -11 6 0 12 -9 12 -20 0 -11 7 -20 15
-20 9 0 12 -6 9 -15 -4 -8 1 -17 9 -21 9 -3 18 -13 21 -21 6 -14 4 -14 -11 -2
-9 8 -4 -3 11 -23 16 -21 32 -38 36 -38 6 0 8 -7 12 -49 1 -11 5 -19 8 -19 25
2 30 -3 20 -22 -9 -17 -8 -19 7 -13 10 3 15 3 11 -2 -4 -4 0 -14 10 -22 9 -8
11 -12 5 -8 -9 4 -11 1 -7 -9 3 -9 10 -14 14 -11 11 7 22 -24 13 -38 -3 -7 -3
-9 2 -5 8 7 43 -33 36 -41 -1 -2 3 -8 11 -12 10 -7 10 -9 -2 -9 -13 0 -13 -1
0 -10 8 -5 15 -13 16 -17 3 -32 37 -76 49 -65 4 4 5 -2 3 -13 -2 -12 2 -19 10
-18 6 2 12 -2 12 -7 0 -6 -6 -10 -12 -10 -7 -1 -2 -7 12 -15 14 -8 19 -14 10
-15 -10 0 -7 -5 8 -16 12 -8 22 -24 22 -34 0 -10 4 -20 9 -22 5 -1 11 -10 13
-18 2 -8 11 -21 20 -28 9 -7 15 -21 13 -31 -2 -11 3 -22 11 -25 8 -3 14 -12
14 -21 0 -8 4 -15 10 -15 5 0 9 -3 9 -7 -3 -20 2 -34 11 -28 6 3 10 -3 10 -14
0 -12 5 -21 11 -21 5 0 7 -4 4 -10 -3 -5 2 -10 12 -11 10 0 13 -3 6 -6 -14 -5
-18 -25 -5 -20 4 1 9 -2 11 -8 3 -5 13 -19 23 -29 17 -19 22 -31 19 -48 0 -4
9 -12 20 -18 12 -7 18 -18 15 -26 -3 -8 0 -14 7 -15 7 0 23 -14 37 -32 l24
-32 -24 20 -25 20 23 -26 c12 -14 19 -29 15 -33 -4 -4 1 -4 11 0 12 5 17 2 14
-8 -4 -17 66 -91 76 -80 4 3 4 -2 0 -12 -6 -15 -4 -17 6 -11 10 6 12 4 7 -8
-4 -12 -1 -15 14 -12 18 4 19 2 8 -11 -7 -8 -8 -14 -3 -13 18 3 34 -1 33 -8
-3 -21 2 -33 14 -30 6 1 11 -3 10 -10 -1 -6 4 -14 13 -17 10 -4 13 -2 8 6 -4
7 -3 8 4 4 7 -4 12 -14 12 -23 0 -10 6 -13 16 -9 8 3 12 2 9 -4 -3 -6 -1 -10
5 -10 6 0 8 -4 5 -10 -3 -6 1 -10 10 -10 18 0 30 -11 59 -50 13 -17 16 -19 12
-6 -5 16 -4 17 9 6 8 -7 12 -16 9 -21 -3 -5 2 -9 11 -9 9 0 13 -4 10 -10 -3
-6 1 -7 9 -4 9 4 18 -1 22 -10 3 -9 13 -16 21 -16 8 0 11 -5 7 -12 -5 -8 -2
-9 9 -5 11 4 17 1 17 -8 0 -14 12 -19 33 -16 4 0 7 -4 7 -10 0 -5 4 -8 9 -5 5
3 11 -3 14 -14 3 -13 10 -18 21 -14 9 3 16 1 16 -6 0 -6 4 -8 10 -5 5 3 19 -5
31 -19 12 -14 29 -23 40 -21 13 3 19 -2 19 -13 0 -15 2 -15 10 -2 6 10 10 11
10 3 0 -7 7 -13 15 -13 8 0 15 -4 15 -8 0 -4 10 -8 22 -9 11 -1 24 -7 28 -13
4 -6 17 -12 28 -13 12 -1 22 -5 22 -10 0 -4 4 -6 9 -2 5 3 13 0 16 -6 4 -5 13
-8 21 -5 9 3 14 -1 14 -12 0 -13 2 -14 9 -4 6 11 10 10 15 -3 5 -14 9 -15 21
-5 11 9 21 7 46 -11 18 -13 29 -17 25 -10 -6 9 -2 9 15 -2 13 -8 32 -13 42
-12 9 2 17 -1 17 -7 0 -6 13 -8 30 -6 19 3 31 0 35 -10 4 -12 8 -12 22 -1 14
12 16 12 8 0 -6 -11 -4 -13 8 -8 10 3 17 2 17 -3 0 -6 5 -10 11 -10 6 0 7 6 2
13 -4 6 5 4 20 -6 15 -9 27 -14 27 -10 0 5 14 8 31 9 20 1 26 -2 17 -7 -14 -9
-17 -9 84 -12 31 -1 60 -5 64 -9 4 -4 13 -3 21 3 10 9 13 8 13 -1 0 -10 3 -10
15 0 12 10 15 10 15 0 0 -9 3 -10 13 -1 8 6 17 8 20 4 10 -10 57 -10 57 0 0 4
9 3 20 -3 11 -6 20 -7 20 -2 0 10 36 9 46 -1 4 -3 16 -2 27 4 15 8 18 8 12 -1
-6 -9 -2 -9 14 -1 16 9 21 9 21 -1 0 -9 3 -9 11 -1 7 7 21 8 40 3 19 -6 29 -5
29 2 0 7 4 7 13 -1 10 -8 17 -7 25 1 9 9 12 9 12 0 0 -9 5 -10 18 -3 13 7 23
6 30 -1 7 -7 12 -8 12 -2 0 5 9 10 20 10 11 0 20 -4 20 -9 0 -5 6 -4 13 2 8 6
17 8 20 4 10 -10 57 -10 57 0 0 4 9 3 20 -3 11 -6 20 -7 20 -2 0 10 36 9 46
-1 4 -3 16 -2 27 4 15 8 18 8 12 -1 -6 -9 -2 -9 14 -1 16 9 21 9 21 -1 0 -9 3
-9 11 -1 7 7 21 8 40 3 19 -6 29 -5 29 2 0 7 4 7 13 -1 10 -8 17 -7 25 1 9 9
12 9 12 0 0 -9 5 -10 18 -3 13 7 23 6 30 -1 7 -7 12 -8 12 -2 0 5 9 10 20 10
11 0 20 -4 20 -9 0 -5 6 -4 13 2 8 6 17 8 20 4 10 -10 57 -10 57 0 0 4 9 3 20
-3 11 -6 20 -7 20 -2 0 10 36 9 46 -1 4 -3 16 -2 27 4 15 8 18 8 12 -1 -6 -9
-2 -9 14 -1 16 9 21 9 21 -1 0 -9 3 -9 11 -1 7 7 21 8 40 3 19 -6 29 -5 29 2
0 7 4 7 13 -1 10 -8 17 -7 25 1 9 9 12 9 12 0 0 -9 5 -10 18 -3 13 7 23 6 30
-1 7 -7 12 -8 12 -2 0 5 9 10 20 10 11 0 20 -4 20 -9 0 -5 6 -4 13 2 8 6 17 8
20 4 10 -10 57 -10 57 0 0 4 9 3 20 -3 11 -6 20 -7 20 -2 0 10 36 9 46 -1 4
-3 16 -2 27 4 15 8 18 8 12 -1 -6 -9 -2 -9 14 -1 15 8 21 9 21 1 0 -6 5 -8 12
-4 6 4 26 7 43 7 17 0 37 -3 43 -7 7 -4 12 -2 12 5 0 8 4 8 15 -1 11 -9 15 -9
15 -1 0 9 5 9 20 1 15 -8 20 -8 20 2 0 9 3 9 11 1 7 -7 20 -8 34 -3 14 5 27 4
34 -3 8 -8 11 -8 11 2 0 11 3 11 15 1 11 -9 15 -9 15 -1 0 9 5 9 20 1 15 -8
20 -8 20 2 0 9 3 9 11 1 7 -7 20 -8 34 -3 14 5 27 4 34 -3 8 -8 11 -8 11 2 0
11 3 11 15 1 11 -9 15 -9 15 -1 0 9 5 9 20 1 15 -8 20 -8 20 2 0 9 3 9 11 1 7
-7 20 -8 34 -3 14 5 27 4 34 -3 8 -8 11 -8 11 2 0 11 3 11 15 1 11 -9 15 -9
15 -1 0 9 5 9 20 1 15 -8 20 -8 20 2 0 9 3 9 11 1 7 -7 20 -8 34 -3 14 5 27 4
34 -3 8 -8 11 -8 11 2 0 11 3 11 15 1 11 -9 15 -9 15 -1 0 9 5 9 20 1 15 -8
20 -8 20 2 0 9 3 9 11 1 7 -7 20 -8 34 -3 14 5 27 4 34 -3 8 -8 11 -8 11 2 0
11 3 11 15 1 11 -9 15 -9 15 -1 0 9 5 9 20 1 15 -8 20 -8 20 2 0 9 3 9 11 1 7
-7 20 -8 34 -3 14 5 27 4 34 -3 8 -8 11 -8 11 2 0 11 3 11 15 1 11 -9 15 -9
15 -1 0 9 5 9 20 1 15 -8 20 -8 20 2 0 9 3 9 11 1 7 -7 20 -8 34 -3 14 5 27 4
34 -3 8 -8 11 -8 11 2 0 11 3 11 15 1 11 -9 15 -9 15 -1 0 9 5 9 20 1 15 -8
20 -8 20 2 0 9 3 9 11 1 7 -7 20 -8 34 -3 14 5 27 4 34 -3 8 -8 11 -8 11 2 0
11 3 11 15 1 11 -9 15 -9 15 -1 0 9 5 9 20 1 15 -8 20 -8 20 2 0 9 3 9 11 1 7
-7 20 -8 34 -3 14 5 27 4 34 -3 8 -8 11 -8 11 2 0 11 3 11 15 1 11 -9 15 -9
15 -1 0 9 5 9 20 1 15 -8 20 -8 20 2 0 9 3 9 11 1 7 -7 20 -8 34 -3 14 5 27 4
34 -3 8 -8 11 -8 11 2 0 11 3 11 15 1 11 -9 15 -9 15 -1 0 9 5 9 20 1 15 -8
20 -8 20 2 0 9 3 9 11 1 7 -7 20 -8 34 -3 14 5 27 4 34 -3 8 -8 11 -8 11 2 0
11 3 11 15 1 11 -9 15 -9 15 -1 0 9 5 9 21 0 16 -8 20 -8 14 1 -6 9 -3 9 13 1
16 -9 24 -8 36 4 18 18 11 45 -12 45 -8 0 -12 3 -8 7 3 4 -4 13 -16 21 -19 11
-20 12 -3 8 19 -6 19 -5 3 8 -10 7 -18 16 -18 20 0 11 -27 36 -38 36 -6 0 -13
7 -16 16 -6 14 -4 15 11 4 10 -7 6 -1 -9 13 -16 14 -28 31 -28 37 0 5 -4 10
-10 10 -5 0 -9 6 -7 13 1 6 -4 11 -10 10 -7 -2 -13 2 -13 7 0 6 6 10 13 10 6
1 1 7 -13 15 -14 8 -21 14 -16 15 5 0 3 7 -4 15 -7 8 -9 15 -4 15 5 0 -2 10
-16 21 -14 11 -19 18 -12 14 6 -3 12 -2 12 3 0 6 -7 12 -15 15 -8 4 -12 15
-10 27 4 19 2 20 -12 8 -14 -11 -15 -10 -9 10 6 17 3 22 -11 22 -15 0 -16 2
-3 10 12 7 12 10 1 10 -7 0 -11 6 -7 15 3 8 1 15 -4 15 -6 0 -10 7 -10 15 0 8
-5 15 -11 15 -5 0 -7 5 -4 10 3 6 2 10 -4 10 -5 0 -8 9 -6 20 3 13 0 18 -7 14
-7 -5 -9 -1 -5 9 3 10 2 17 -4 17 -6 0 -9 6 -6 13 2 6 -3 18 -12 25 -9 8 -10
11 -3 7 6 -3 12 -1 12 4 0 6 -8 11 -17 12 -11 0 -13 3 -6 6 9 3 8 11 -5 31 -9
14 -11 23 -5 19 9 -6 11 -3 7 7 -3 9 -10 16 -15 16 -6 0 -5 9 1 20 8 15 8 20
-1 18 -6 -2 -14 3 -17 11 -3 9 0 11 9 6 8 -5 5 2 -6 15 -11 13 -14 20 -6 15
10 -6 12 -4 5 6 -11 17 -15 36 -17 72 -1 15 -4 27 -7 27 -3 0 -6 18 -8 40 -4
71 -7 90 -13 90 -5 0 -4 31 2 67 1 4 0 11 -1 16 -8 25 -4 193 5 199 6 5 5 8
-4 8 -11 0 -11 3 0 17 12 15 12 16 -1 8 -12 -7 -13 -6 -3 7 7 8 10 18 6 21 -3
4 0 7 8 7 12 0 11 2 -1 11 -12 8 -12 12 -2 16 10 4 10 8 0 21 -9 11 -9 14 -1
9 9 -6 12 4 11 35 -2 48 9 89 26 100 8 5 8 8 0 8 -14 0 -11 43 4 48 7 2 12 8
12 13 0 6 -4 7 -10 4 -6 -3 -7 1 -4 9 3 9 10 14 14 11 4 -3 8 1 7 8 -1 41 4
58 16 51 8 -5 8 -2 -2 9 -10 13 -10 17 -1 17 7 0 10 6 7 14 -3 7 0 19 6 26 7
8 7 10 1 7 -6 -3 -11 0 -11 8 0 8 3 12 7 10 4 -3 15 4 24 14 10 11 13 22 8 25
-10 6 3 52 26 94 7 12 11 26 8 31 -7 11 18 33 27 25 4 -4 5 3 2 14 -2 13 3 26
13 32 11 6 12 10 4 10 -7 0 -10 5 -7 10 4 6 10 8 15 5 4 -3 11 2 14 11 4 10 2
13 -7 9 -6 -4 -3 1 7 9 11 9 16 16 12 16 -5 0 -3 6 3 13 6 8 8 17 4 21 -4 4 1
4 12 0 17 -6 18 -5 8 7 -9 11 -8 19 6 35 9 11 21 19 27 17 6 -2 11 3 11 11 0
8 -5 13 -11 10 -6 -3 -3 1 7 9 9 8 17 20 17 26 0 7 5 9 12 5 7 -5 9 -2 5 9 -4
12 -1 15 15 12 16 -3 18 -1 11 6 -13 13 15 52 30 42 6 -3 7 -1 3 6 -9 14 12
43 25 35 5 -3 6 2 3 11 -4 10 -2 14 8 10 11 -4 14 3 13 30 -1 19 -5 38 -10 43
-5 4 -4 0 0 -8 8 -13 7 -13 -8 -1 -13 11 -15 17 -6 28 9 11 9 12 -5 7 -10 -4
-18 0 -22 10 -3 9 -11 13 -18 9 -6 -4 -6 -1 2 9 10 13 10 17 -3 22 -9 3 -13
10 -10 16 4 6 -1 7 -11 3 -12 -4 -15 -3 -10 5 4 7 2 12 -4 12 -6 0 -8 5 -5 10
3 6 -2 10 -12 11 -11 0 -13 3 -5 6 8 3 2 15 -20 35 -18 17 -24 25 -13 17 19
-14 19 -14 0 12 -11 15 -23 25 -27 22 -5 -2 -8 5 -8 16 0 12 -6 21 -12 21 -10
0 -10 2 0 9 10 6 9 11 -4 22 -10 8 -15 9 -11 2 4 -6 3 -14 -2 -17 -5 -4 -8 2
-6 11 1 10 -3 24 -9 32 -9 12 -8 13 4 7 8 -4 4 2 -10 14 -14 12 -19 19 -12 15
6 -3 12 -1 12 4 0 6 -7 11 -15 11 -10 0 -15 10 -15 31 0 16 -4 28 -9 25 -5 -3
-12 1 -15 10 -4 10 -2 13 7 9 6 -4 4 0 -5 8 -10 8 -15 17 -11 20 3 4 0 14 -8
24 -12 15 -12 16 1 9 8 -4 7 -1 -4 8 -10 8 -16 22 -13 30 4 9 1 18 -5 22 -7 5
-8 2 -3 -6 5 -9 4 -11 -4 -6 -6 4 -9 12 -5 17 3 5 -1 23 -10 39 -8 17 -10 27
-4 24 5 -4 2 6 -8 22 -11 15 -13 25 -7 21 9 -6 11 -3 7 7 -3 9 -11 16 -16 16
-6 0 -5 6 2 15 7 9 8 15 2 15 -5 0 -13 7 -16 16 -4 10 -2 13 7 8 6 -4 4 2 -6
13 -13 14 -15 23 -7 28 8 5 8 10 0 20 -7 8 -9 19 -5 25 3 5 2 10 -3 10 -5 0
-8 10 -8 23 1 12 -2 28 -7 35 -6 8 -5 12 4 12 12 0 12 2 0 9 -7 5 -11 15 -9
22 3 8 1 22 -4 33 -7 12 -7 16 0 12 6 -4 8 2 5 14 -3 11 -10 17 -17 13 -6 -4
-5 1 3 10 11 14 11 17 0 17 -9 0 -10 3 -4 8 9 6 11 25 5 45 -6 19 -5 33 5 39
6 5 6 8 0 8 -12 0 -13 199 -1 218 4 7 2 12 -6 12 -9 1 -9 3 2 9 11 7 15 27 15
74 0 36 3 63 7 61 5 -3 8 7 8 21 0 15 5 36 11 47 7 12 7 18 1 14 -6 -4 -8 2
-5 14 3 11 9 17 14 14 5 -3 9 2 9 11 0 9 -4 14 -8 11 -5 -3 -4 10 2 29 6 18
14 31 18 29 4 -3 5 2 1 11 -3 10 0 21 7 25 11 7 11 11 0 24 -11 14 -10 16 5
10 12 -5 16 -4 12 3 -10 16 3 44 16 36 5 -3 7 -1 3 5 -3 6 -2 14 4 17 8 5 7
12 -2 23 -10 12 -10 14 0 8 7 -4 12 -2 12 8 0 8 6 17 13 19 8 4 8 6 -3 6 -10
1 -8 5 7 16 14 10 19 22 16 35 -3 12 1 22 10 26 9 3 13 14 10 27 -4 18 -3 19
6 7 9 -13 11 -12 11 3 0 10 9 27 20 39 15 17 17 24 8 35 -9 11 -8 13 3 11 8
-2 13 4 13 15 -1 9 4 17 12 17 8 0 14 5 14 11 0 5 -6 7 -12 4 -7 -4 -4 1 7 10
11 9 19 20 18 25 -1 4 5 14 14 22 14 11 16 11 8 -1 -5 -10 -4 -12 4 -7 9 6 9
11 -1 24 -7 9 -8 13 -3 10 6 -3 19 4 30 15 11 11 14 17 8 13 -7 -4 -13 -3 -13
1 0 5 10 13 22 18 12 6 25 17 29 25 13 27 22 55 20 64 -1 5 6 3 15 -5 10 -8
15 -9 11 -3 -4 7 0 14 8 18 8 3 15 11 15 18 0 9 -3 8 -10 -2 -5 -8 -10 -10
-10 -4 0 16 25 35 36 26 4 -4 2 1 -5 11 -10 12 -17 15 -25 7 -12 -12 -29 -13
-22 -1 7 11 -13 9 -31 -2 -8 -5 -13 -3 -13 4 0 9 -3 9 -14 0 -10 -9 -16 -9
-21 -1 -5 8 -12 5 -21 -7 -11 -13 -13 -14 -9 -2 4 10 0 16 -10 16 -8 0 -15 -4
-15 -9 0 -5 -5 -6 -10 -3 -6 4 -8 11 -5 16 11 16 -7 10 -20 -8 -9 -13 -14 -13
-20 -3 -6 9 -4 11 5 5 9 -5 11 -4 6 3 -5 9 -13 9 -26 2 -24 -13 -33 -13 -25 0
3 6 1 10 -4 10 -6 0 -11 -8 -11 -17 -1 -17 -1 -17 -11 0 -8 13 -15 15 -28 8
-12 -7 -22 -6 -29 1 -9 9 -12 7 -12 -8 -1 -18 -1 -18 -11 -1 -8 13 -14 15 -29
7 -23 -12 -33 -13 -26 -2 5 9 -52 7 -61 -2 -4 -3 -12 -1 -20 5 -10 9 -13 7
-13 -7 -1 -18 -1 -18 -11 -1 -8 13 -14 15 -29 7 -23 -12 -33 -13 -26 -2 5 9
-52 7 -61 -2 -4 -3 -12 -1 -20 5 -10 9 -13 7 -13 -7 -1 -18 -1 -18 -11 -1 -8
13 -14 15 -29 7 -23 -12 -33 -13 -26 -2 5 9 -52 7 -61 -2 -4 -3 -12 -1 -20 5
-10 9 -13 7 -13 -7 -1 -18 -1 -18 -11 -1 -8 13 -14 15 -29 7 -23 -12 -33 -13
-26 -2 5 9 -52 7 -61 -2 -4 -3 -12 -1 -20 5 -10 9 -13 7 -13 -7 -1 -18 -1 -18
-11 -1 -8 13 -14 15 -29 7 -23 -12 -33 -13 -26 -2 5 9 -52 7 -61 -2 -4 -3 -12
-1 -20 5 -10 9 -13 7 -13 -7 -1 -18 -1 -18 -11 -1 -8 13 -14 15 -29 7 -22 -12
-33 -13 -26 -2 8 13 -41 7 -58 -7 -13 -11 -16 -11 -16 0 0 11 -2 11 -10 -1 -9
-13 -10 -13 -10 0 0 13 -1 13 -10 0 -9 -13 -10 -13 -10 0 0 13 -1 13 -10 0 -8
-12 -10 -12 -10 -1 0 11 -3 11 -17 0 -14 -12 -16 -12 -8 0 6 11 5 12 -6 5 -21
-13 -39 -14 -39 -2 0 6 -6 5 -15 -2 -12 -10 -15 -10 -15 1 0 11 -2 11 -10 -1
-9 -13 -10 -13 -10 0 0 13 -1 13 -10 0 -9 -13 -10 -13 -10 0 0 13 -1 13 -10 0
-8 -12 -10 -12 -10 -1 0 11 -3 11 -17 0 -15 -12 -16 -12 -8 1 8 13 7 13 -8 1
-14 -11 -17 -11 -17 0 0 11 -2 11 -10 -1 -8 -12 -10 -12 -10 -1 0 11 -3 11
-15 1 -12 -10 -15 -10 -15 1 0 11 -2 11 -10 -1 -9 -13 -10 -13 -10 0 0 13 -1
13 -10 0 -9 -13 -10 -13 -10 0 0 13 -1 13 -10 0 -8 -12 -10 -12 -10 -1 0 11
-3 11 -17 0 -15 -12 -16 -12 -8 1 8 13 7 13 -8 1 -14 -11 -17 -11 -17 0 0 11
-2 11 -10 -1 -8 -12 -10 -12 -10 -1 0 11 -3 11 -15 1 -12 -10 -15 -10 -15 1 0
11 -2 11 -10 -1 -9 -13 -10 -13 -10 0 0 13 -1 13 -10 0 -9 -13 -10 -13 -10 0
0 13 -1 13 -10 0 -8 -12 -10 -12 -10 -1 0 11 -3 11 -17 0 -15 -12 -16 -12 -8
1 8 13 7 13 -8 1 -14 -11 -17 -11 -17 0 0 11 -2 11 -10 -1 -8 -12 -10 -12 -10
-1 0 11 -3 11 -15 1 -12 -10 -15 -10 -15 1 0 11 -2 11 -10 -1 -9 -13 -10 -13
-10 0 0 13 -1 13 -10 0 -9 -13 -10 -13 -10 0 0 12 -2 12 -9 1 -6 -9 -10 -10
-16 -2 -5 9 -10 9 -21 0 -11 -9 -14 -8 -14 2 0 11 -2 11 -10 -1 -9 -13 -10
-13 -10 0 0 13 -1 13 -10 0 -7 -11 -10 -11 -10 -2 0 8 -5 10 -12 5 -17 -10
-39 -13 -34 -4 3 4 -6 7 -19 7 -13 0 -21 -4 -19 -8 3 -4 0 -8 -5 -8 -6 0 -11
6 -11 13 0 8 -4 7 -10 -3 -9 -13 -10 -13 -10 0 0 13 -1 13 -10 0 -9 -13 -10
-13 -10 0 0 12 -2 12 -9 1 -6 -9 -10 -10 -16 -2 -5 9 -10 9 -21 0 -11 -9 -14
-8 -14 2 0 11 -2 11 -10 -1 -9 -13 -10 -13 -10 0 0 13 -1 13 -10 0 -7 -11 -10
-11 -10 -2 0 8 -5 10 -12 5 -17 -10 -39 -13 -34 -4 3 4 -6 7 -19 7 -13 0 -21
-4 -19 -8 3 -4 0 -8 -5 -8 -6 0 -11 6 -11 13 0 8 -4 7 -10 -3 -9 -13 -10 -13
-10 0 0 13 -1 13 -10 0 -9 -13 -10 -13 -10 0 0 12 -2 12 -9 1 -6 -9 -10 -10
-16 -2 -5 9 -10 9 -21 0 -11 -9 -14 -8 -14 2 0 11 -2 11 -10 -1 -9 -13 -10
-13 -10 0 0 13 -1 13 -10 0 -7 -11 -10 -11 -10 -2 0 8 -5 10 -12 5 -17 -10
-39 -13 -34 -4 3 4 -6 7 -19 7 -13 0 -21 -4 -19 -8 3 -4 0 -8 -5 -8 -6 0 -11
6 -11 13 0 8 -4 7 -10 -3 -9 -13 -10 -13 -10 0 0 13 -1 13 -10 0 -9 -13 -10
-13 -10 0 0 12 -2 12 -9 1 -6 -9 -10 -10 -16 -2 -5 9 -10 9 -21 0 -11 -9 -14
-8 -14 2 0 11 -2 11 -10 -1 -9 -13 -10 -13 -10 0 0 13 -1 13 -10 0 -7 -11 -10
-11 -10 -2 0 8 -5 10 -12 5 -17 -10 -39 -13 -34 -4 3 4 -6 7 -19 7 -13 0 -21
-4 -19 -8 3 -4 0 -8 -5 -8 -6 0 -11 4 -11 8 0 5 -7 9 -15 9 -8 0 -12 -4 -9 -9
3 -4 1 -8 -5 -8 -5 0 -12 6 -14 13 -4 9 -6 9 -6 -1 -1 -8 -6 -10 -13 -6 -17
11 -48 12 -42 2 3 -4 0 -8 -5 -8 -6 0 -11 6 -11 13 0 8 -4 7 -10 -3 -7 -11
-10 -11 -10 -2 0 8 -5 10 -12 5 -17 -10 -39 -13 -34 -4 3 4 -11 7 -29 7 -18 0
-31 -4 -29 -8 3 -4 0 -8 -5 -8 -6 0 -11 6 -11 13 0 8 -4 7 -10 -3 -8 -13 -10
-13 -10 0 0 11 -3 11 -12 2 -16 -16 -31 -15 -22 1 5 8 2 8 -9 -2 -9 -7 -17 -9
-17 -4 0 5 -7 10 -15 10 -8 0 -12 -4 -9 -9 3 -4 0 -8 -5 -8 -6 0 -11 5 -11 11
0 6 -5 7 -12 2 -17 -10 -39 -13 -34 -4 3 4 -6 7 -19 7 -13 0 -21 -4 -19 -8 3
-4 0 -8 -5 -8 -6 0 -11 4 -11 8 0 5 -7 9 -15 9 -8 0 -12 -4 -9 -9 3 -4 1 -8
-5 -8 -5 0 -12 6 -14 13 -4 9 -6 9 -6 -1 -1 -8 -6 -10 -13 -6 -17 11 -48 12
-42 2 3 -4 0 -8 -5 -8 -6 0 -11 6 -11 13 0 8 -4 7 -10 -3 -7 -11 -10 -11 -10
-2 0 8 -5 10 -12 5 -20 -12 -39 -12 -32 -1 5 7 2 8 -7 2 -19 -12 -40 -14 -34
-4 3 5 0 12 -6 16 -7 4 -9 3 -5 -4z m3546 -136 c0 -3 -4 -8 -10 -11 -5 -3 -10
-1 -10 4 0 6 5 11 10 11 6 0 10 -2 10 -4z m-150 -230 c0 -2 -8 -10 -17 -17
-16 -13 -17 -12 -4 4 13 16 21 21 21 13z m-70 -140 c0 -3 -4 -8 -10 -11 -5 -3
-10 -1 -10 4 0 6 5 11 10 11 6 0 10 -2 10 -4z m-3324 -176 c17 7 23 7 19 0 -3
-6 -1 -10 4 -10 6 0 11 6 11 13 0 8 4 7 10 -3 8 -13 10 -13 10 0 0 10 3 11 11
3 8 -8 20 -8 35 -3 19 8 22 6 18 -8 -5 -15 -4 -15 9 1 10 12 17 14 22 7 3 -5
11 -8 16 -4 16 9 68 11 63 2 -3 -4 2 -8 10 -8 9 0 16 4 16 9 0 4 12 6 28 4 64
-9 82 -9 86 1 2 6 5 2 5 -9 1 -16 3 -17 10 -6 8 12 12 13 25 1 14 -11 16 -10
9 6 -5 15 -4 17 8 8 8 -6 22 -10 32 -9 9 2 17 0 17 -4 0 -9 31 -8 48 3 7 4 12
2 12 -6 0 -9 3 -9 10 2 5 8 10 12 10 8 0 -4 11 -3 25 2 13 5 27 5 30 1 3 -5
21 -5 40 -1 31 7 34 6 24 -6 -10 -12 -9 -13 5 -8 9 3 16 11 16 16 0 6 6 5 15
-2 10 -8 15 -9 15 -2 0 6 7 9 15 6 8 -4 12 -11 8 -18 -4 -6 1 -5 10 3 14 11
20 11 32 1 13 -11 14 -10 9 3 -4 12 -1 14 15 10 11 -3 18 -10 15 -15 -4 -6 5
-3 18 6 14 9 28 13 32 9 11 -11 40 -10 48 2 4 6 8 2 8 -8 0 -10 5 -15 10 -12
6 4 8 10 5 15 -6 9 34 5 43 -5 3 -2 11 0 18 6 7 6 14 6 18 0 3 -5 16 -7 28 -3
16 4 19 2 13 -8 -5 -9 0 -8 15 3 18 12 27 14 37 5 10 -8 13 -7 13 2 0 9 7 7
22 -6 12 -10 18 -14 15 -7 -5 7 4 11 28 11 24 0 33 -4 28 -11 -4 -7 1 -6 10 1
17 14 79 24 71 11 -2 -4 17 -5 42 -3 32 3 43 1 39 -7 -4 -6 4 -4 18 6 24 15
26 15 36 -2 10 -17 10 -17 11 1 0 13 3 16 13 9 6 -6 20 -9 30 -8 9 2 17 0 17
-4 0 -10 183 -7 199 3 9 6 12 5 8 -1 -7 -11 121 -11 140 0 6 4 13 1 16 -5 3
-10 8 -10 18 -2 16 12 59 16 59 6 0 -11 122 -8 139 2 9 6 12 5 8 -1 -8 -13
144 -9 168 4 15 9 22 7 33 -5 7 -10 11 -12 8 -5 -7 14 32 14 51 1 6 -5 14 -5
17 0 6 11 36 9 55 -3 11 -6 13 -4 8 8 -4 12 -2 14 11 10 9 -4 20 -11 24 -17 5
-7 8 -6 8 3 0 9 5 7 18 -6 9 -10 13 -12 7 -3 -9 13 -8 13 8 1 20 -16 23 -51 5
-51 -8 0 -9 -3 -3 -8 6 -4 11 -13 13 -21 3 -12 1 -12 -14 0 -13 10 -16 10 -10
1 4 -7 9 -24 11 -38 2 -20 -1 -24 -14 -19 -13 5 -13 4 -4 -6 10 -10 10 -16 0
-28 -10 -12 -9 -13 3 -6 12 7 13 6 3 -6 -7 -9 -11 -25 -8 -37 2 -12 0 -22 -4
-22 -4 0 -6 -13 -5 -30 1 -16 -3 -30 -8 -30 -7 0 -6 -5 1 -13 6 -8 8 -17 4
-21 -11 -11 -14 -48 -3 -41 5 3 3 -7 -5 -22 -9 -16 -11 -31 -6 -36 13 -13 2
-38 -13 -30 -6 3 -3 -3 7 -14 13 -15 15 -23 7 -28 -9 -6 -9 -10 1 -16 8 -5 9
-9 4 -9 -6 0 -11 -9 -12 -20 -1 -12 3 -18 9 -14 6 4 6 -1 -1 -14 -13 -24 -14
-35 -3 -28 8 5 6 -73 -3 -82 -3 -3 2 -16 11 -30 9 -13 11 -21 5 -18 -6 4 -11
3 -11 -3 0 -5 5 -13 10 -16 8 -5 8 -11 0 -20 -7 -8 -7 -16 -1 -19 5 -3 8 -19
7 -36 -1 -16 3 -30 8 -30 6 0 5 -4 -1 -8 -10 -7 -10 -12 1 -28 10 -13 11 -23
4 -31 -7 -9 -7 -13 0 -13 6 0 10 -15 10 -32 0 -50 1 -60 10 -54 5 3 9 -1 9 -9
0 -8 -5 -11 -11 -8 -7 4 -6 1 1 -8 12 -15 13 -19 13 -45 0 -8 4 -13 9 -10 5 3
8 -13 7 -35 -2 -26 2 -43 11 -46 7 -3 13 -9 13 -15 0 -5 -5 -6 -11 -2 -6 3 -4
-5 5 -18 9 -14 13 -28 9 -31 -3 -4 -2 -7 4 -7 6 0 10 -13 9 -29 -2 -22 3 -31
18 -35 18 -5 19 -8 6 -16 -14 -9 -7 -15 14 -11 5 1 4 -5 -4 -13 -8 -11 -9 -16
-1 -16 6 0 10 -3 10 -7 -4 -23 2 -43 11 -38 6 3 10 4 10 1 0 -2 3 -12 7 -22 5
-13 3 -15 -8 -10 -8 4 -3 -2 11 -14 14 -12 19 -19 13 -15 -20 10 -15 -13 5
-24 13 -8 14 -10 2 -11 -13 0 -13 -2 0 -9 8 -6 17 -8 20 -6 3 2 6 -8 7 -22 0
-14 7 -29 13 -33 7 -5 10 -15 7 -24 -3 -8 -1 -18 5 -22 7 -5 8 -2 3 6 -5 9 -4
11 3 6 7 -4 12 -14 12 -22 0 -8 4 -13 9 -10 4 3 7 -6 6 -19 -2 -14 2 -23 8
-22 6 1 13 -8 15 -21 2 -13 8 -20 14 -16 7 5 9 0 6 -14 -3 -12 -3 -21 1 -20
18 2 21 -4 11 -21 -7 -14 -6 -21 3 -24 6 -3 2 -6 -10 -6 -24 -1 -33 -20 -10
-22 9 0 9 -2 -1 -6 -6 -2 -9 -10 -5 -16 4 -7 -1 -6 -10 2 -16 13 -17 12 -8
-12 9 -22 8 -25 -9 -22 -14 3 -17 -2 -15 -21 2 -19 -1 -22 -11 -14 -9 9 -12 5
-9 -15 1 -16 -3 -29 -12 -32 -10 -4 -11 -9 -2 -19 9 -12 9 -13 -4 -9 -8 4 -18
1 -23 -6 -5 -8 -3 -10 7 -5 8 4 7 1 -3 -6 -11 -10 -13 -19 -7 -31 8 -13 6 -15
-7 -10 -13 5 -16 3 -11 -10 4 -12 1 -17 -11 -18 -10 0 -12 -3 -4 -6 6 -2 12
-9 12 -15 0 -6 -6 -8 -14 -5 -9 4 -13 0 -12 -11 2 -9 -4 -23 -13 -30 -14 -11
-14 -11 4 -6 17 5 16 3 -5 -16 -14 -12 -19 -19 -13 -15 9 4 11 1 7 -9 -3 -9
-11 -13 -18 -9 -6 4 -5 -1 3 -10 12 -15 11 -17 -4 -17 -14 0 -15 -3 -6 -14 9
-11 9 -16 0 -22 -8 -5 -9 -3 -4 6 5 8 4 11 -2 7 -6 -4 -9 -20 -8 -37 2 -27 1
-29 -13 -18 -13 11 -14 11 -8 -1 5 -8 3 -17 -5 -23 -11 -7 -9 -8 5 -4 18 6 18
5 1 -20 -11 -18 -13 -24 -4 -19 11 6 12 5 2 -6 -7 -7 -13 -21 -13 -30 0 -9 -7
-22 -15 -29 -8 -7 -15 -18 -14 -24 0 -7 2 -6 6 2 10 26 21 10 10 -17 -7 -20
-16 -27 -26 -24 -11 4 -10 1 3 -9 17 -14 17 -15 2 -21 -13 -5 -15 -11 -7 -26
8 -15 7 -20 -5 -25 -11 -4 -12 -10 -4 -25 7 -13 7 -22 0 -26 -14 -9 -12 -42 3
-49 6 -4 2 -4 -11 -2 -16 3 -21 1 -14 -7 12 -16 13 -55 1 -62 -5 -4 -7 -11 -3
-16 3 -6 7 -21 9 -35 2 -21 0 -22 -13 -12 -13 11 -14 10 -3 -9 7 -15 8 -23 1
-23 -5 0 -10 -5 -10 -11 0 -5 3 -8 8 -6 4 3 8 -6 8 -19 1 -13 -1 -22 -5 -19
-4 2 -8 -2 -8 -10 0 -8 5 -15 11 -15 6 0 3 -5 -7 -11 -12 -7 -15 -15 -9 -22 5
-7 9 -46 9 -88 0 -42 3 -81 7 -88 4 -6 3 -11 -2 -11 -6 0 -8 -9 -5 -20 3 -12
0 -20 -8 -20 -8 0 -5 -6 7 -15 14 -10 15 -14 5 -15 -11 0 -10 -4 4 -13 13 -10
15 -16 6 -21 -6 -4 -8 -13 -4 -19 12 -20 14 -49 3 -62 -7 -9 -5 -16 7 -26 17
-13 17 -13 3 6 -14 19 -14 19 3 6 13 -10 15 -17 6 -27 -9 -11 -8 -14 1 -14 10
0 10 -3 0 -15 -7 -9 -8 -15 -2 -15 6 0 9 -11 7 -25 -1 -17 3 -25 14 -26 10 0
11 -2 4 -6 -10 -3 -10 -10 -2 -25 7 -13 7 -18 1 -14 -6 3 -14 1 -18 -5 -4 -7
-3 -9 3 -6 6 4 16 1 22 -6 7 -10 5 -17 -9 -30 -11 -9 -22 -12 -25 -7 -4 7 -13
7 -24 0 -10 -5 -21 -7 -24 -4 -8 9 -66 11 -61 3 2 -4 0 -10 -6 -14 -5 -3 -10
1 -10 9 0 18 -16 21 -25 6 -5 -8 -11 -7 -21 1 -8 6 -14 8 -14 4 0 -4 -8 -1
-17 6 -9 8 -14 9 -10 3 4 -7 -1 -18 -10 -25 -10 -8 -14 -9 -10 -2 5 8 -2 11
-22 11 -19 -1 -28 -5 -24 -12 4 -6 -3 -3 -14 7 -19 17 -22 17 -37 2 -10 -10
-16 -12 -16 -5 0 7 -8 10 -19 7 -10 -2 -26 0 -36 6 -14 7 -16 7 -10 -3 6 -10
4 -12 -8 -7 -10 4 -24 10 -32 13 -10 4 -15 0 -15 -11 0 -9 -5 -13 -10 -10 -6
4 -8 11 -5 16 4 5 -3 5 -18 0 -14 -6 -27 -7 -30 -4 -9 8 -66 10 -61 2 2 -4 0
-10 -6 -14 -5 -3 -10 1 -10 9 0 18 -16 21 -25 6 -5 -8 -11 -7 -21 1 -8 6 -14
8 -14 4 0 -4 -8 -1 -17 6 -9 8 -14 9 -10 3 4 -7 -1 -18 -10 -25 -10 -8 -14 -9
-10 -2 5 8 -2 11 -22 11 -19 -1 -28 -5 -24 -12 4 -6 -1 -5 -11 3 -18 15 -68
22 -60 9 2 -3 0 -9 -6 -13 -5 -3 -10 1 -10 9 0 18 -16 21 -25 6 -4 -6 -11 -8
-16 -4 -14 8 -108 11 -103 2 2 -3 0 -9 -6 -13 -5 -3 -10 1 -10 9 0 18 -16 21
-26 5 -4 -7 -10 -7 -16 -1 -7 7 -18 6 -34 -5 -13 -8 -24 -11 -24 -5 0 5 -11
12 -25 14 -13 3 -22 2 -20 -3 3 -4 1 -10 -5 -14 -5 -3 -10 1 -10 9 0 18 -16
21 -25 6 -4 -6 -11 -8 -16 -4 -14 8 -108 11 -103 2 2 -3 0 -9 -6 -13 -5 -3
-10 1 -10 9 0 18 -16 21 -26 5 -4 -7 -10 -7 -16 -1 -7 7 -18 6 -34 -5 -16 -10
-24 -11 -24 -4 0 7 -14 11 -32 11 -18 -1 -47 1 -65 3 -17 1 -30 0 -27 -4 2 -4
0 -10 -6 -14 -5 -3 -10 1 -10 9 0 18 -16 21 -25 6 -4 -6 -11 -8 -16 -4 -18 11
-88 10 -79 -1 6 -7 2 -11 -11 -11 -12 0 -18 5 -15 13 3 7 1 13 -4 13 -6 0 -10
-4 -10 -10 0 -5 -7 -6 -17 -3 -12 5 -14 3 -8 -8 6 -11 5 -12 -5 -2 -11 10 -17
10 -29 0 -12 -9 -13 -9 -7 1 5 9 -3 11 -36 8 -24 -2 -48 1 -55 6 -7 6 -14 5
-19 -3 -4 -8 -3 -9 4 -5 7 4 12 2 12 -3 0 -15 -11 -14 -31 5 -13 12 -19 12
-25 3 -5 -8 -3 -10 6 -4 9 6 11 4 5 -5 -6 -10 -11 -9 -22 5 -13 18 -13 18 -13
-1 -1 -18 -1 -18 -11 -1 -8 14 -14 15 -24 7 -10 -9 -20 -8 -37 1 -22 12 -22
11 -8 -6 14 -17 14 -18 -7 -6 -18 9 -23 9 -23 -1 0 -6 -6 -4 -13 7 -10 13 -16
15 -21 6 -4 -6 -12 -9 -17 -5 -5 3 -17 0 -26 -8 -14 -10 -15 -10 -9 0 10 16
-25 13 -36 -3 -5 -6 -8 -5 -8 3 0 6 -7 12 -16 12 -9 0 -12 -5 -8 -12 5 -10 4
-10 -6 -1 -11 10 -17 10 -29 0 -12 -9 -13 -9 -7 1 5 9 -3 11 -36 8 -24 -2 -48
1 -55 6 -7 6 -14 5 -19 -3 -4 -8 -3 -9 4 -5 7 4 12 2 12 -3 0 -15 -11 -14 -31
5 -13 12 -19 12 -25 3 -5 -8 -3 -10 6 -4 9 6 11 4 5 -5 -6 -10 -11 -9 -22 5
-13 18 -13 18 -13 -1 -1 -18 -1 -18 -11 -1 -8 14 -14 15 -24 7 -10 -9 -20 -8
-37 1 -22 12 -22 11 -8 -6 14 -17 14 -18 -7 -6 -16 8 -23 8 -23 1 0 -6 -7 -4
-16 5 -15 15 -18 15 -41 -1 -15 -9 -22 -11 -18 -3 6 9 2 11 -13 7 -12 -3 -23
-1 -26 6 -3 8 -7 7 -14 -3 -6 -8 -12 -9 -16 -3 -3 6 -18 9 -32 6 -18 -3 -23
-1 -18 7 5 9 2 10 -11 5 -11 -4 -22 -2 -27 6 -6 11 -8 10 -8 0 0 -8 -5 -10
-12 -5 -7 4 -20 8 -28 9 -8 0 -28 6 -43 12 -15 7 -31 11 -35 10 -12 -3 -52 13
-52 21 0 4 -6 8 -12 9 -35 3 -53 11 -50 23 2 10 0 10 -11 1 -11 -10 -20 -6
-42 15 -16 16 -25 22 -21 16 4 -7 2 -13 -3 -13 -6 0 -11 5 -11 10 0 6 -7 10
-15 10 -8 0 -15 5 -15 12 0 6 -3 8 -7 5 -3 -4 -12 1 -19 11 -11 14 -14 14 -14
2 -1 -8 -5 -5 -11 9 -6 14 -15 21 -24 17 -8 -3 -17 0 -21 6 -5 7 -2 8 6 3 9
-5 11 -4 6 3 -4 7 -16 12 -27 12 -11 0 -17 5 -14 10 3 6 -3 10 -15 10 -12 0
-18 5 -15 10 3 6 -1 10 -10 10 -9 0 -19 9 -22 20 -4 16 -9 18 -19 9 -10 -8
-12 -6 -9 10 2 14 -1 18 -11 14 -8 -3 -14 0 -14 7 0 6 -5 8 -10 5 -6 -4 -10
-3 -9 2 3 19 -2 34 -10 28 -5 -3 -16 4 -24 15 -7 11 -18 17 -23 12 -4 -4 -2 2
6 12 10 13 10 17 3 12 -8 -4 -13 -2 -13 4 0 6 -4 8 -10 5 -5 -3 -10 1 -10 9 0
9 -15 31 -34 49 -18 17 -37 42 -41 55 -3 12 -10 22 -15 22 -8 0 -25 48 -22 62
1 4 -5 5 -13 2 -13 -6 -20 6 -16 29 0 4 -3 7 -9 7 -5 0 -10 10 -10 22 0 12 -3
18 -7 15 -3 -4 -12 1 -19 11 -17 22 -18 35 -1 27 6 -4 2 2 -10 12 -12 10 -23
25 -25 33 -2 8 -10 21 -18 28 -8 8 -10 11 -3 8 7 -4 9 1 5 16 -3 12 -7 17 -10
10 -7 -21 -20 -13 -14 10 4 16 2 19 -8 13 -10 -6 -12 -4 -7 8 3 10 2 17 -4 17
-6 0 -7 4 -4 10 3 6 -1 10 -10 10 -9 0 -15 6 -12 13 2 6 -3 18 -12 25 -9 8
-10 11 -4 7 9 -4 11 -1 7 9 -3 9 -10 13 -15 10 -5 -3 -9 2 -9 10 0 9 -4 16
-10 16 -5 0 -10 5 -10 11 0 5 6 7 13 4 6 -4 2 2 -9 12 -12 10 -27 33 -35 51
-8 17 -18 32 -23 32 -4 0 -6 9 -3 19 3 14 1 18 -9 14 -13 -5 -19 14 -15 40 1
5 -4 5 -10 1 -9 -5 -10 -2 -5 11 5 14 4 16 -7 7 -11 -9 -13 -7 -12 11 2 24
-14 57 -28 57 -4 0 -5 -5 -1 -12 4 -7 3 -8 -5 -4 -9 6 -9 11 0 22 9 11 9 14 0
14 -7 0 -9 5 -6 10 3 6 0 10 -7 10 -8 0 -23 20 -35 45 -11 24 -15 42 -9 39 6
-3 1 3 -11 12 -13 9 -23 23 -23 30 0 8 -5 14 -11 14 -5 0 -7 5 -4 10 3 6 1 10
-5 10 -6 0 -9 4 -6 9 4 5 1 11 -4 13 -6 2 -12 13 -13 25 0 12 -4 20 -8 17 -4
-2 -12 10 -19 26 -7 17 -18 30 -24 30 -6 0 -4 5 4 10 13 9 13 10 0 11 -8 1
-19 1 -24 0 -5 -1 -6 5 -3 13 4 9 0 22 -8 30 -11 11 -12 16 -2 20 6 4 2 4 -11
2 -19 -4 -21 -2 -11 10 9 11 9 14 -1 14 -7 0 -10 8 -7 20 3 11 0 23 -5 27 -7
3 -8 1 -4 -5 4 -7 2 -12 -3 -12 -6 0 -11 9 -11 20 0 11 -5 20 -11 20 -5 0 -8
4 -4 9 3 5 1 12 -4 16 -6 3 -8 12 -5 20 4 8 10 12 15 9 5 -3 8 -2 7 3 -1 4 3
18 10 30 6 12 13 32 15 44 2 13 10 25 17 27 8 3 10 0 5 -8 -5 -9 -4 -11 4 -6
9 6 9 11 1 21 -8 9 -6 14 6 19 9 4 14 12 10 22 -3 8 -2 12 4 9 6 -3 11 -1 11
4 1 6 2 15 3 20 0 5 5 13 10 18 5 5 6 3 2 -4 -13 -23 1 -13 18 12 15 23 15 24
-1 19 -10 -3 -7 2 7 10 14 8 19 15 12 16 -7 0 -10 5 -7 10 4 6 10 8 15 5 9 -6
20 18 20 45 0 10 5 22 12 26 7 5 8 2 3 -7 -5 -8 -4 -11 1 -6 5 5 9 12 9 15 2
21 18 52 25 47 11 -7 21 21 14 40 -5 11 -2 13 10 9 12 -4 15 -2 10 9 -3 8 0
18 5 22 6 3 8 12 4 18 -4 7 0 7 10 -1 14 -12 16 -11 12 7 -3 15 1 21 13 21 15
0 15 2 2 10 -13 8 -12 10 3 10 10 0 16 4 13 9 -7 11 19 63 27 54 4 -3 7 1 7
11 0 9 4 15 9 12 11 -7 9 13 -2 31 -5 8 -1 11 12 8 14 -2 18 1 14 11 -3 8 1
14 11 14 10 0 13 6 9 15 -3 9 2 24 11 34 14 15 14 20 4 24 -8 4 -7 6 5 6 9 1
17 8 17 16 0 8 5 15 10 15 6 0 10 5 10 11 0 5 -5 7 -12 3 -7 -4 -8 -3 -4 5 4
6 10 9 14 7 4 -2 13 2 20 10 9 10 10 14 1 14 -7 0 -2 9 11 20 13 11 18 20 11
20 -9 0 -8 4 1 14 7 8 16 12 20 10 3 -2 4 6 2 18 -2 13 -1 17 2 10 5 -10 9 -9
19 5 10 14 11 22 2 33 -6 8 -8 12 -3 8 5 -4 15 -1 22 7 17 17 18 28 2 19 -7
-3 1 6 17 21 17 14 24 24 18 20 -7 -3 -13 -1 -13 4 0 6 10 11 21 11 18 0 19 2
9 15 -10 12 -9 15 6 15 16 0 17 2 4 10 -9 6 -10 10 -3 10 7 0 10 9 8 21 -4 18
-2 19 11 8 8 -7 14 -8 13 -3 -4 15 13 48 36 69 11 11 14 16 5 11 -8 -5 -3 2
11 16 14 13 25 32 23 41 -1 9 3 20 8 24 7 3 8 1 4 -5 -4 -7 -2 -12 3 -12 6 0
11 7 11 15 0 8 5 15 11 15 5 0 7 5 3 12 -4 6 -3 8 3 5 14 -9 37 19 28 33 -4 6
-3 10 2 9 20 -3 27 2 13 11 -12 8 -13 10 -1 10 8 0 28 15 44 33 16 17 23 23
16 12 -10 -14 -4 -12 23 9 20 15 44 38 53 52 9 14 20 22 25 19 6 -4 10 -1 10
4 0 6 7 11 15 11 8 0 15 5 15 10 0 6 6 10 14 10 8 0 16 7 20 15 3 8 11 14 18
13 7 -2 12 3 10 10 -1 8 2 11 8 7 5 -3 13 1 16 10 5 13 9 13 22 3 9 -7 13 -8
10 -3 -3 6 0 16 8 23 9 8 14 9 14 2 0 -6 5 -8 10 -5 6 4 8 10 5 15 -3 4 2 11
11 14 8 3 13 2 10 -2 -3 -5 1 -9 9 -9 8 0 13 5 12 10 -1 5 4 12 12 15 9 3 11
0 7 -9 -4 -8 5 0 19 16 15 17 24 24 21 18 -10 -18 -2 -16 39 7 20 11 34 16 30
10 -3 -6 0 -7 9 -4 9 3 16 11 16 18 0 6 5 4 10 -4 8 -12 10 -12 10 -1 0 8 3
11 7 8 3 -4 13 -1 21 6 13 10 14 9 7 -3 -8 -13 -6 -13 8 -2 9 8 21 11 27 7 5
-3 10 -1 10 5 0 7 7 10 15 6 8 -3 15 0 15 7 0 8 4 7 10 -3 9 -13 12 -12 25 4
11 15 15 16 16 5 0 -8 3 -9 5 -3 2 6 21 9 41 7 20 -1 43 3 52 10 12 10 13 9 6
-2 -6 -11 -5 -12 6 -5 22 13 42 14 58 1 11 -9 13 -9 8 0 -4 6 -1 13 5 16 7 2
14 0 16 -4 2 -4 15 -4 28 1z m-836 -294 c0 -2 -6 -9 -14 -15 -11 -9 -16 -9
-22 0 -4 7 -3 9 4 5 6 -3 13 -2 17 4 6 10 15 14 15 6z m-1555 -1216 c-3 -5
-11 -10 -16 -10 -6 0 -7 5 -4 10 3 6 11 10 16 10 6 0 7 -4 4 -10z m629 -235
c-4 -8 -11 -15 -16 -15 -6 0 -5 6 2 15 7 8 14 15 16 15 2 0 1 -7 -2 -15z
m5046 -659 c0 -3 -4 -8 -10 -11 -5 -3 -10 -1 -10 4 0 6 5 11 10 11 6 0 10 -2
10 -4z m-5243 -451 c0 -8 -4 -12 -9 -9 -5 3 -6 10 -3 15 9 13 12 11 12 -6z"/>
<path d="M7861 7613 c-1 -6 -10 -9 -23 -5 -15 4 -19 2 -13 -7 6 -10 3 -11 -11
-3 -11 6 -21 11 -24 13 -3 1 -16 -3 -29 -10 -13 -7 -21 -8 -17 -3 7 11 -19 10
-30 -1 -12 -12 -26 -8 -18 6 4 6 -4 2 -17 -9 -13 -12 -30 -19 -38 -16 -8 2
-11 1 -9 -4 3 -5 -6 -20 -20 -34 -16 -16 -21 -18 -12 -5 15 20 14 20 -8 1 -23
-20 -30 -32 -11 -20 7 4 10 2 8 -5 -3 -7 -7 -11 -9 -9 -11 7 -37 -28 -32 -41
3 -9 1 -12 -6 -7 -7 4 -12 1 -12 -8 0 -15 -12 -21 -34 -17 -5 1 -4 -4 2 -11 8
-10 5 -18 -13 -34 -13 -12 -26 -20 -29 -17 -2 3 -3 -7 -2 -21 2 -17 -4 -31
-20 -43 -13 -10 -24 -24 -24 -31 0 -7 -5 -10 -11 -7 -6 4 -9 0 -7 -11 2 -11
-2 -18 -9 -17 -6 1 -10 -5 -9 -15 2 -9 -3 -21 -10 -27 -8 -5 -15 -20 -17 -33
-2 -12 -12 -29 -23 -38 -10 -8 -12 -13 -4 -9 13 6 13 5 0 -7 -9 -7 -15 -23
-14 -36 1 -16 -3 -21 -13 -18 -11 4 -11 1 -3 -14 9 -16 8 -18 -5 -14 -9 4 -15
3 -14 -2 3 -21 -2 -45 -9 -40 -4 2 -7 -11 -6 -30 2 -31 0 -33 -14 -22 -13 11
-14 11 -8 0 4 -7 4 -18 -1 -25 -4 -7 -8 -21 -8 -32 0 -11 -5 -26 -12 -33 -7
-8 -11 -18 -7 -23 3 -6 2 -15 -3 -22 -5 -7 -9 -27 -9 -44 1 -18 -3 -33 -8 -33
-4 0 -6 -7 -3 -15 4 -8 2 -17 -3 -20 -5 -3 -6 -13 -3 -22 5 -11 3 -14 -6 -8
-10 6 -11 3 -2 -14 9 -16 9 -21 0 -21 -7 0 -9 -3 -6 -7 4 -3 1 -13 -6 -21 -7
-10 -8 -13 -1 -9 8 4 11 -2 10 -18 0 -14 -4 -25 -8 -25 -8 0 -5 -21 5 -37 5
-7 4 -13 0 -13 -5 0 -9 -9 -10 -20 -1 -13 2 -18 10 -13 9 5 9 3 1 -8 -16 -20
-24 -58 -13 -64 4 -3 6 -12 3 -20 -4 -8 -10 -12 -15 -9 -15 9 -10 -3 8 -17 14
-12 16 -12 8 0 -5 10 -4 12 4 7 7 -5 9 -12 3 -19 -10 -13 -9 -63 1 -73 4 -4 2
-15 -4 -25 -6 -13 -6 -19 1 -19 5 0 10 -5 10 -11 0 -5 -5 -7 -11 -3 -8 4 -8 0
0 -15 9 -16 9 -21 -1 -21 -10 0 -9 -3 1 -9 13 -8 13 -12 0 -27 -12 -16 -12
-17 2 -12 11 4 15 0 15 -16 -1 -11 -5 -24 -11 -28 -6 -5 -5 -8 4 -8 8 0 11 -7
8 -20 -3 -11 -2 -20 3 -20 4 0 8 -6 7 -12 -1 -47 4 -69 16 -62 7 5 7 1 -2 -10
-13 -15 -13 -19 0 -27 8 -5 10 -9 5 -9 -4 0 0 -12 9 -27 17 -25 17 -26 -1 -19
-17 6 -17 6 -1 -12 9 -10 14 -22 10 -25 -3 -4 -1 -7 6 -7 9 0 9 -5 1 -20 -9
-16 -8 -19 6 -13 11 4 15 3 10 -5 -3 -6 -2 -13 4 -17 5 -3 10 -11 10 -16 0 -6
-4 -7 -10 -4 -6 3 -7 -1 -4 -9 3 -9 10 -16 14 -16 4 0 11 -7 14 -16 4 -10 2
-13 -7 -7 -6 4 -4 -4 5 -17 32 -45 41 -63 28 -55 -16 10 19 -57 39 -73 9 -8
10 -11 4 -7 -19 9 -16 -6 5 -22 9 -8 11 -12 5 -8 -9 4 -11 1 -7 -10 4 -9 12
-14 19 -11 9 3 11 -2 7 -16 -3 -14 -1 -19 6 -14 16 10 15 -7 0 -23 -10 -11
-10 -13 0 -7 20 12 35 -4 20 -22 -7 -9 -8 -13 -2 -9 6 4 20 -3 30 -15 12 -13
13 -18 4 -13 -11 7 -10 3 3 -15 10 -14 25 -37 35 -52 9 -16 23 -28 31 -28 7 0
11 -6 8 -15 -4 -8 -1 -17 5 -21 7 -5 8 -2 3 6 -6 9 -4 11 4 6 7 -5 10 -14 7
-22 -3 -8 0 -11 10 -7 9 3 14 -2 14 -15 0 -12 5 -24 12 -28 7 -4 8 -3 4 4 -5
8 -2 10 8 6 9 -3 13 -10 10 -15 -3 -6 0 -17 7 -25 15 -19 21 -47 8 -38 -5 3
-9 -2 -9 -11 0 -9 -9 -19 -20 -22 -19 -5 -19 -6 -3 -18 17 -13 17 -13 -2 -12
-12 1 -19 -3 -17 -12 2 -9 -3 -11 -13 -7 -9 3 -13 2 -10 -4 3 -6 0 -10 -7 -10
-11 0 -10 -2 0 -9 10 -6 9 -10 -7 -14 -12 -3 -21 -10 -21 -17 0 -6 6 -8 13 -4
6 4 3 -2 -7 -14 -23 -26 -34 -30 -15 -4 13 15 12 16 -3 3 -10 -7 -18 -20 -18
-28 0 -9 -5 -11 -12 -7 -8 5 -8 2 1 -10 12 -15 12 -17 0 -14 -9 2 -14 -5 -13
-19 1 -13 -3 -20 -11 -16 -7 2 -16 -1 -21 -8 -5 -8 -3 -10 7 -5 8 4 6 1 -3 -7
-14 -11 -15 -16 -5 -26 9 -10 8 -11 -7 -5 -16 6 -18 4 -13 -11 6 -14 5 -15 -6
-7 -10 8 -13 6 -13 -8 0 -10 4 -16 9 -13 5 3 3 -4 -5 -16 -7 -12 -19 -21 -27
-21 -12 0 -12 -3 -3 -12 15 -15 15 -28 1 -28 -5 0 -7 6 -4 13 4 6 -1 3 -10 -8
-8 -11 -11 -21 -6 -23 5 -2 2 -12 -7 -23 -9 -11 -17 -25 -18 -32 -3 -34 -5
-38 -16 -31 -7 5 -9 2 -5 -9 3 -8 -1 -21 -9 -28 -11 -9 -12 -15 -2 -26 9 -11
7 -15 -11 -20 -16 -4 -19 -8 -10 -14 9 -5 10 -11 2 -21 -11 -13 -13 -18 -13
-39 0 -5 -6 -7 -12 -3 -9 5 -9 2 1 -9 8 -11 9 -17 3 -17 -7 0 -9 -7 -5 -17 5
-12 3 -14 -8 -8 -12 8 -12 6 0 -8 10 -13 10 -17 1 -17 -7 0 -10 -7 -6 -17 4
-9 3 -19 -2 -22 -5 -3 -13 -17 -17 -30 -5 -18 -4 -22 6 -16 8 5 7 0 -3 -14 -9
-12 -14 -31 -11 -42 3 -11 0 -19 -6 -19 -7 0 -9 5 -5 12 4 7 3 8 -4 4 -6 -4
-9 -13 -6 -21 4 -8 11 -12 18 -8 6 4 5 -1 -2 -10 -8 -9 -11 -21 -8 -26 4 -5 2
-12 -4 -16 -6 -4 -7 -12 -1 -24 6 -10 6 -23 1 -31 -6 -9 -5 -17 3 -22 8 -5 8
-8 1 -8 -12 0 -12 -29 1 -49 5 -10 4 -12 -3 -7 -8 5 -11 -5 -8 -34 2 -22 1
-38 -3 -36 -3 3 -5 -19 -3 -47 2 -29 3 -60 3 -69 0 -10 5 -20 10 -23 5 -4 6
-12 2 -18 -11 -18 -11 -47 0 -47 5 0 4 -7 -3 -15 -10 -12 -10 -15 0 -15 9 0 9
-4 -1 -17 -12 -14 -12 -16 0 -8 11 6 13 4 8 -7 -3 -9 1 -27 8 -42 8 -15 10
-24 5 -21 -5 3 -8 -4 -7 -15 1 -11 5 -20 10 -20 5 0 6 -8 3 -17 -3 -10 1 -31
9 -46 9 -19 10 -25 2 -21 -7 4 -3 -2 7 -14 13 -15 15 -22 6 -22 -10 0 -10 -3
0 -15 7 -9 10 -18 6 -22 -3 -4 4 -17 16 -30 21 -22 21 -24 3 -18 -17 6 -18 5
-5 -7 15 -13 21 -28 24 -59 1 -9 10 -24 19 -33 22 -23 22 -32 0 -15 -11 9 -9
3 5 -15 14 -18 20 -36 16 -48 -4 -12 -1 -18 8 -16 7 2 12 -3 11 -9 -2 -7 5
-13 15 -13 13 0 14 -2 4 -9 -11 -6 -10 -10 3 -15 10 -3 15 -12 11 -21 -3 -10
1 -15 12 -15 15 0 15 -2 2 -10 -10 -6 -11 -10 -2 -10 6 0 12 -7 12 -15 0 -9 6
-18 14 -21 9 -3 12 -12 9 -21 -4 -11 -2 -14 5 -9 8 5 12 0 12 -13 0 -12 5 -21
11 -21 6 0 9 -7 6 -14 -4 -11 -1 -13 10 -9 12 5 15 2 10 -10 -3 -9 -1 -19 5
-23 7 -5 8 -2 3 6 -5 9 -4 11 3 6 7 -4 12 -16 12 -27 0 -11 5 -17 10 -14 9 6
14 -8 11 -27 0 -5 6 -8 15 -8 8 0 13 -4 10 -9 -3 -5 1 -12 10 -15 10 -4 14
-12 10 -23 -4 -10 -4 -14 0 -11 8 8 34 -16 34 -31 0 -6 7 -11 15 -11 13 0 19
-12 16 -32 0 -4 6 -5 14 -2 8 4 15 1 15 -6 0 -6 5 -8 10 -5 6 3 10 -3 10 -14
0 -19 10 -26 33 -22 4 0 7 -4 7 -10 0 -8 5 -8 15 1 12 10 15 10 15 0 0 -10 3
-10 15 0 11 9 15 9 15 1 0 -8 5 -9 18 -2 13 7 23 6 30 -1 7 -7 12 -8 12 -2 0
5 9 10 20 10 11 0 20 -4 20 -9 0 -5 6 -4 13 2 8 6 17 8 20 4 10 -10 57 -10 57
0 0 4 9 3 20 -3 11 -6 20 -7 20 -2 0 10 36 9 46 -1 4 -3 16 -2 27 4 15 8 18 8
12 -1 -6 -9 -2 -9 14 -1 16 9 21 9 21 -1 0 -9 3 -9 11 -1 7 7 21 8 40 3 19 -6
29 -5 29 2 0 7 4 7 13 -1 10 -8 17 -7 25 1 9 9 12 9 12 0 0 -9 5 -10 18 -3 13
7 23 6 30 -1 7 -7 12 -8 12 -2 0 5 9 10 20 10 11 0 20 -4 20 -9 0 -5 7 -4 15
3 9 8 15 8 15 2 0 -7 10 -8 30 -2 20 6 30 5 30 -2 0 -6 6 -6 15 2 11 9 15 9
15 1 0 -8 4 -8 14 1 15 15 0 48 -22 48 -7 0 -10 5 -7 10 4 6 3 10 -2 9 -18 -3
-36 1 -30 8 10 10 -31 35 -45 27 -6 -4 -8 -3 -5 3 6 10 -27 43 -44 43 -5 0 -7
5 -4 10 6 9 -8 15 -29 11 -5 -1 -3 6 5 15 9 12 9 15 2 10 -8 -4 -13 -2 -13 4
0 6 -4 8 -10 5 -5 -3 -10 1 -10 9 0 9 -6 16 -14 16 -10 0 -13 7 -11 21 3 15 1
18 -8 11 -13 -11 -41 10 -30 22 4 3 1 6 -6 6 -7 0 -9 5 -6 10 6 10 -9 15 -30
10 -5 -1 -7 2 -3 6 5 4 -1 14 -12 21 -11 8 -17 19 -14 25 4 6 -5 21 -20 33
-19 16 -23 25 -14 28 8 3 6 6 -6 6 -12 1 -16 6 -12 17 4 10 2 13 -6 8 -8 -5
-9 0 -5 15 5 19 3 20 -11 9 -13 -11 -14 -11 -8 0 5 9 0 21 -13 33 -12 11 -19
24 -16 30 4 5 0 9 -8 9 -10 0 -14 7 -10 23 4 18 3 19 -7 7 -10 -12 -11 -11 -7
8 4 16 1 22 -11 22 -15 0 -15 2 -2 10 13 8 13 10 -1 10 -9 0 -20 7 -23 16 -10
26 -7 29 10 8 11 -13 10 -10 -2 14 -10 17 -22 32 -27 32 -4 0 -5 5 -2 11 4 5
-1 20 -12 31 -10 12 -12 18 -5 14 6 -4 12 -2 12 3 0 6 -5 11 -11 11 -5 0 -8 4
-4 9 3 5 -2 17 -11 25 -11 12 -12 16 -2 16 10 0 10 2 1 8 -7 5 -14 20 -15 35
-1 15 -6 27 -10 27 -4 0 -8 15 -8 33 0 18 -6 39 -12 46 -11 11 -10 12 2 6 12
-7 13 -6 3 6 -7 8 -13 34 -14 57 -2 23 -7 42 -12 42 -5 0 -4 7 3 15 7 8 8 15
2 15 -5 0 -9 17 -9 38 0 21 -3 43 -7 50 -4 7 -3 12 2 12 4 0 6 23 2 50 -4 33
-3 50 4 50 6 0 4 5 -4 10 -8 5 -10 10 -4 10 12 0 12 28 1 47 -4 6 0 14 9 17
13 5 14 9 5 20 -8 10 -9 16 -1 21 5 3 10 17 10 31 0 13 6 24 13 24 9 0 9 2 -1
9 -11 6 -10 10 4 15 13 5 15 9 6 18 -9 9 -7 17 6 32 13 14 13 18 2 12 -9 -4
-8 -2 3 7 20 16 23 31 5 22 -7 -4 -5 0 4 8 10 8 15 17 11 20 -3 4 -1 7 5 7 7
0 12 5 12 11 0 5 -5 7 -11 4 -6 -4 -5 2 3 14 7 12 16 21 21 21 4 0 5 5 2 10
-3 6 -1 10 4 10 6 0 11 5 11 11 0 5 -6 7 -12 4 -7 -4 2 5 20 20 18 15 31 33
28 40 -2 8 2 16 10 19 8 3 14 12 14 21 0 8 5 15 11 15 5 0 7 5 4 10 -6 9 7 14
27 11 4 0 5 6 2 14 -4 8 -1 15 6 15 7 0 10 7 6 16 -3 8 -2 12 4 9 6 -3 10 -1
10 5 0 6 5 8 12 4 8 -5 9 -2 5 9 -4 11 -1 17 8 17 8 0 18 7 23 16 5 9 22 18
38 21 55 7 236 8 241 0 2 -4 12 -4 21 1 14 6 327 8 342 2 3 -1 10 -1 15 0 28
6 97 5 101 -2 3 -4 13 -5 22 0 9 4 26 6 37 6 11 -1 28 -2 38 -3 10 -1 15 -5
12 -11 -3 -5 -2 -10 2 -10 5 0 9 -9 10 -20 1 -11 -2 -18 -8 -15 -5 4 -6 -3 -1
-17 10 -27 9 -39 -1 -55 -5 -7 -4 -13 0 -13 5 0 9 -9 10 -20 1 -11 -2 -18 -8
-15 -5 4 -6 -3 -1 -17 10 -27 9 -39 -1 -55 -5 -7 -4 -13 0 -13 5 0 9 -9 10
-20 1 -11 -2 -18 -8 -15 -5 4 -6 -3 -1 -17 10 -27 9 -39 -1 -55 -5 -7 -4 -13
2 -13 5 0 8 -13 6 -29 -4 -32 15 -47 34 -28 8 8 11 6 12 -8 0 -19 1 -19 9 0 6
13 9 15 9 5 1 -13 2 -13 11 0 5 8 10 10 10 5 0 -6 9 -11 20 -11 11 0 20 5 21
11 0 5 4 1 9 -10 6 -14 9 -15 9 -5 1 16 41 23 41 8 0 -5 9 -4 19 2 16 8 20 6
24 -8 4 -16 5 -16 6 1 0 10 6 15 12 12 16 -11 79 -11 79 -1 0 4 6 3 14 -3 10
-8 16 -9 21 -1 3 6 12 7 18 3 7 -4 5 2 -3 12 -8 10 -10 16 -3 12 7 -5 12 -1
12 10 0 10 1 32 3 49 3 25 1 31 -12 26 -13 -5 -13 -3 -1 11 11 14 12 23 2 44
-11 24 -10 25 4 13 14 -12 15 -10 6 14 -7 18 -7 26 0 26 6 0 7 5 4 10 -4 6
-12 7 -18 3 -7 -4 -5 1 3 11 19 24 22 46 5 39 -11 -4 -12 0 -2 20 6 14 15 23
20 20 5 -3 3 4 -4 15 -7 12 -18 18 -24 14 -5 -3 -4 2 4 11 11 14 12 23 2 44
-10 22 -10 25 2 15 11 -9 13 -6 9 18 -3 18 -9 28 -16 24 -6 -3 -3 1 7 9 16 13
16 15 2 21 -13 5 -14 10 -4 27 6 12 12 34 13 49 2 21 -2 27 -14 22 -12 -4 -11
-1 3 15 18 21 18 22 0 32 -17 10 -17 10 2 11 12 1 15 4 7 7 -10 4 -10 8 -1 19
10 12 8 13 -7 8 -19 -5 -19 -5 0 10 18 14 18 16 2 22 -13 5 -15 9 -5 15 10 6
10 11 -2 25 -8 10 -9 15 -3 11 7 -4 14 0 18 8 3 8 -3 19 -12 24 -15 9 -15 10
3 11 12 1 15 4 7 7 -10 4 -10 8 -1 19 10 12 8 13 -7 7 -17 -6 -18 -5 -5 11 13
15 13 19 0 27 -11 7 -10 9 5 9 18 0 18 1 1 20 -17 19 -17 20 0 26 17 7 17 8
-1 21 -17 12 -17 13 2 14 11 0 14 3 6 6 -10 4 -10 8 -1 19 10 12 9 13 -4 8
-14 -5 -14 -2 -4 19 6 14 16 23 22 20 5 -4 -1 5 -13 19 -22 25 -23 27 -5 36
17 10 17 11 0 18 -14 5 -15 9 -6 15 17 10 21 39 4 32 -11 -4 -12 0 -2 20 6 14
16 23 22 20 5 -4 -1 6 -15 22 -14 16 -19 25 -12 21 7 -4 12 -2 13 6 0 7 2 25
3 39 1 19 -2 25 -12 21 -11 -4 -11 0 2 19 14 23 14 27 -1 49 -9 13 -11 20 -5
16 16 -10 16 36 0 53 -11 11 -10 13 4 8 15 -5 16 -2 8 18 -6 17 -6 25 1 25 6
0 7 5 4 10 -4 6 -12 8 -18 4 -7 -3 -3 2 7 10 13 10 15 16 7 16 -11 0 -11 3 -1
15 11 13 10 14 -6 8 -17 -6 -18 -5 -5 11 13 15 13 19 0 27 -11 7 -10 9 6 9 20
1 20 1 1 15 -11 8 -14 15 -8 15 16 0 15 32 0 49 -11 11 -10 13 2 9 12 -4 15 3
14 36 0 22 3 49 8 59 6 11 5 17 -2 17 -8 0 -8 6 0 20 6 11 7 20 3 19 -20 -3
-27 2 -13 11 11 7 4 9 -23 5 -26 -3 -36 -1 -31 7 4 7 3 8 -5 4 -18 -12 -61
-17 -61 -8 0 4 -9 8 -20 8 -11 0 -20 -3 -20 -6 0 -4 -7 -7 -15 -7 -8 0 -15 4
-15 9 0 5 -7 5 -17 0 -9 -6 -29 -6 -45 -2 -17 5 -28 5 -28 -1 0 -12 -32 -8
-42 6 -5 6 -8 5 -8 -2 0 -7 -7 -10 -15 -7 -8 4 -15 1 -15 -7 0 -7 -3 -9 -7 -6
-3 4 -12 2 -19 -4 -9 -8 -10 -18 -3 -35 12 -32 11 -37 -1 -29 -6 4 -7 -2 -1
-17 11 -31 11 -41 -1 -55 -6 -7 -6 -13 -1 -13 5 0 9 -9 10 -20 1 -11 -2 -18
-8 -15 -5 4 -6 -3 0 -17 11 -31 11 -41 -1 -55 -6 -7 -6 -13 -1 -13 5 0 9 -9
10 -20 1 -13 -2 -18 -9 -14 -6 4 -8 3 -4 -4 10 -17 14 -72 5 -78 -4 -2 -6 -11
-3 -18 6 -14 -22 -30 -37 -20 -5 3 -9 -3 -9 -13 0 -15 -2 -15 -9 -4 -10 16
-51 23 -51 9 0 -4 -5 -8 -11 -8 -5 0 -8 4 -5 9 4 5 -3 7 -14 4 -11 -3 -17 -10
-13 -17 3 -6 -2 -4 -13 5 -20 16 -59 14 -48 -3 4 -5 -5 -2 -20 7 -14 10 -26
13 -26 7 0 -5 -7 -13 -16 -16 -13 -5 -14 -3 -6 6 8 10 -2 13 -48 12 -32 -1
-63 -5 -69 -9 -6 -3 -11 0 -11 7 0 9 -3 9 -10 -2 -9 -13 -10 -13 -10 0 0 13
-1 13 -10 0 -5 -8 -10 -10 -10 -5 0 6 -5 3 -10 -5 -7 -11 -10 -11 -10 -2 0 7
-8 12 -17 10 -10 -1 -24 1 -30 5 -8 5 -13 3 -13 -5 0 -9 -3 -9 -10 2 -8 12
-10 12 -10 -5 0 -16 -2 -17 -10 -5 -5 8 -12 11 -16 8 -4 -4 -16 -2 -27 4 -17
8 -19 8 -14 -5 4 -11 2 -14 -8 -10 -8 3 -13 8 -11 12 3 4 -4 7 -15 7 -10 0
-19 -7 -19 -16 0 -13 -2 -13 -10 0 -5 8 -12 11 -16 8 -4 -4 -16 -2 -27 4 -17
8 -19 8 -14 -5 4 -11 2 -14 -8 -10 -8 3 -13 8 -11 12 6 9 -37 7 -51 -2 -6 -4
-18 -1 -26 7 -11 11 -17 12 -26 3 -9 -9 -11 -8 -5 7 5 13 4 17 -4 12 -8 -5
-10 -1 -5 10 4 12 3 15 -5 10 -7 -4 -12 -2 -12 3 0 6 -7 11 -15 11 -9 0 -12 6
-8 18 3 9 3 14 -2 10 -9 -9 -65 46 -65 62 0 6 -4 8 -10 5 -6 -4 -7 1 -3 11 5
13 3 15 -8 9 -11 -7 -11 -5 1 10 9 11 10 16 3 11 -8 -4 -13 -2 -13 4 0 7 -6
10 -13 7 -9 -3 -12 4 -11 24 1 16 -3 32 -9 36 -6 3 -7 1 -3 -5 4 -7 5 -12 2
-12 -3 0 -10 10 -17 21 -9 17 -8 20 3 14 7 -3 6 -1 -3 7 -9 7 -14 19 -11 27 3
9 0 12 -10 9 -11 -5 -14 0 -10 19 4 20 2 24 -9 18 -11 -7 -11 -5 1 10 9 11 10
16 3 11 -8 -4 -13 -2 -13 4 0 6 -5 8 -12 4 -9 -5 -9 -2 1 9 9 11 10 17 2 17
-6 0 -11 5 -11 11 0 5 6 7 13 3 6 -4 4 2 -6 13 -9 11 -14 23 -10 26 3 4 0 7
-8 7 -11 0 -11 2 1 10 8 5 10 10 4 10 -7 0 -15 7 -18 16 -3 8 -2 12 4 9 6 -3
10 -1 10 4 0 6 -5 11 -11 11 -5 0 -8 4 -4 9 3 5 1 13 -5 16 -8 5 -7 11 1 21 9
11 9 14 -1 14 -7 0 -10 8 -7 20 3 11 0 20 -5 20 -7 0 -6 5 1 14 9 11 9 15 -1
19 -7 3 -8 6 -3 6 6 1 9 35 7 87 -2 66 1 84 10 78 11 -6 11 -5 0 8 -14 18 -5
78 12 78 6 0 4 5 -4 10 -8 5 -10 10 -4 10 7 0 9 11 6 26 -3 16 1 30 9 35 12 7
11 9 -1 9 -12 0 -12 2 -2 9 7 4 14 24 15 44 1 21 5 37 8 37 4 0 10 7 13 16 3
8 2 12 -4 9 -17 -10 -11 7 8 22 10 8 11 11 2 7 -13 -7 -13 -5 -2 9 8 9 11 21
7 27 -3 5 2 10 12 11 11 0 13 3 5 6 -10 4 -9 9 5 19 17 13 17 14 -2 8 -18 -5
-18 -4 3 13 18 15 20 21 10 31 -9 9 -9 12 1 12 8 0 11 6 7 15 -3 10 1 15 12
15 15 0 15 2 2 10 -13 9 -13 12 0 23 23 19 57 61 43 53 -21 -12 -15 1 12 29
15 14 20 25 13 25 -10 0 -9 3 2 9 8 6 17 8 21 5 4 -2 5 5 2 16 -3 12 1 22 10
26 9 3 14 14 12 26 -4 17 -2 18 12 6 9 -7 14 -8 10 -2 -4 6 2 19 13 29 11 10
20 24 20 32 0 7 5 13 10 13 6 0 10 7 10 15 0 9 7 18 15 21 8 4 12 11 8 17 -4
6 0 8 11 4 9 -4 15 -3 11 2 -8 14 5 41 20 41 7 0 16 8 19 17 6 15 8 15 16 3 8
-12 10 -10 10 8 0 14 6 22 18 22 14 0 15 2 2 10 -13 8 -12 10 4 10 12 0 16 5
12 16 -3 8 -2 13 3 9 5 -3 16 1 24 9 8 8 17 12 21 9 3 -4 6 1 6 9 0 9 7 19 16
22 9 3 12 11 8 18 -4 7 -4 10 1 6 11 -11 47 11 39 24 -4 7 -3 8 4 4 7 -4 12
-2 12 5 0 6 8 9 20 6 10 -3 18 -2 17 3 -1 4 9 17 23 29 14 13 20 20 13 17 -6
-4 -13 -3 -16 1 -2 5 -2 1 0 -7 2 -11 -1 -10 -11 3 -10 13 -16 15 -21 7 -6 -9
-10 -9 -16 1 -5 8 -9 9 -9 4 0 -6 -9 -11 -20 -12 -11 -1 -18 1 -16 5 6 10 -86
8 -101 -1 -8 -5 -13 -3 -13 4 0 7 -3 9 -7 6 -3 -4 -12 -2 -20 5 -8 6 -13 7
-12 2 3 -19 -1 -29 -9 -18 -10 16 -62 27 -62 14 0 -6 4 -9 9 -5 5 3 12 1 15
-4 7 -11 -13 -9 -31 2 -7 5 -17 6 -22 3 -5 -4 -12 0 -14 6 -4 10 -6 10 -6 0
-1 -9 -6 -10 -19 -3 -10 6 -24 6 -32 1 -8 -5 -18 -6 -22 -4 -18 11 -48 13 -42
2 5 -7 1 -9 -9 -5 -10 4 -17 1 -17 -6 0 -8 -3 -9 -8 -1 -9 14 -45 27 -37 14 3
-6 -1 -10 -10 -10 -10 0 -14 5 -10 13 4 6 0 4 -8 -6 -15 -18 -15 -18 -20 0 -3
10 -5 13 -6 6z m230 -406 c-10 -9 -11 -8 -5 6 3 10 9 15 12 12 3 -3 0 -11 -7
-18z m-631 -1867 c0 -5 -2 -10 -4 -10 -3 0 -8 5 -11 10 -3 6 -1 10 4 10 6 0
11 -4 11 -10z"/>
<path d="M7657 7603 c-4 -3 -7 -11 -7 -17 0 -6 5 -5 12 2 6 6 9 14 7 17 -3 3
-9 2 -12 -2z"/>
<path d="M1663 6545 c0 -8 4 -12 9 -9 5 3 6 10 3 15 -9 13 -12 11 -12 -6z"/>
<path d="M935 5280 c-3 -5 1 -10 10 -10 9 0 13 5 10 10 -3 6 -8 10 -10 10 -2
0 -7 -4 -10 -10z"/>
<path d="M7410 4880 c0 -5 5 -10 11 -10 5 0 7 5 4 10 -3 6 -8 10 -11 10 -2 0
-4 -4 -4 -10z"/>
<path d="M9365 4700 c-3 -5 -1 -10 4 -10 6 0 11 5 11 10 0 6 -2 10 -4 10 -3 0
-8 -4 -11 -10z"/>
<path d="M1410 4140 c0 -5 5 -10 11 -10 5 0 7 5 4 10 -3 6 -8 10 -11 10 -2 0
-4 -4 -4 -10z"/>
<path d="M8125 3001 c-3 -5 -2 -12 3 -15 5 -3 9 1 9 9 0 17 -3 19 -12 6z"/>
</g>
</svg>
